<svg width="90" height="90" viewBox="0 0 90 90" fill="none" xmlns="http://www.w3.org/2000/svg">
<g clip-path="url(#clip0_34_16)">
<path d="M72 13.5H18C15.5109 13.5 13.5 15.5109 13.5 18V38.25C11.9391 38.25 10.4203 38.475 9 38.8969V18C9 13.0359 13.0359 9 18 9H72C76.9641 9 81 13.0359 81 18V38.8969C79.5797 38.475 78.0609 38.25 76.5 38.25V18C76.5 15.5109 74.4891 13.5 72 13.5ZM13.5 58.5C14.6935 58.5 15.8381 58.0259 16.682 57.182C17.5259 56.3381 18 55.1935 18 54C18 52.8065 17.5259 51.6619 16.682 50.818C15.8381 49.9741 14.6935 49.5 13.5 49.5C12.3065 49.5 11.1619 49.9741 10.318 50.818C9.47411 51.6619 9 52.8065 9 54C9 55.1935 9.47411 56.3381 10.318 57.182C11.1619 58.0259 12.3065 58.5 13.5 58.5ZM13.5 45C15.8869 45 18.1761 45.9482 19.864 47.636C21.5518 49.3239 22.5 51.6131 22.5 54C22.5 56.3869 21.5518 58.6761 19.864 60.364C18.1761 62.0518 15.8869 63 13.5 63C11.1131 63 8.82387 62.0518 7.13604 60.364C5.44821 58.6761 4.5 56.3869 4.5 54C4.5 51.6131 5.44821 49.3239 7.13604 47.636C8.82387 45.9482 11.1131 45 13.5 45ZM45 58.5C46.1935 58.5 47.3381 58.0259 48.182 57.182C49.0259 56.3381 49.5 55.1935 49.5 54C49.5 52.8065 49.0259 51.6619 48.182 50.818C47.3381 49.9741 46.1935 49.5 45 49.5C43.8065 49.5 42.6619 49.9741 41.818 50.818C40.9741 51.6619 40.5 52.8065 40.5 54C40.5 55.1935 40.9741 56.3381 41.818 57.182C42.6619 58.0259 43.8065 58.5 45 58.5ZM45 45C47.3869 45 49.6761 45.9482 51.364 47.636C53.0518 49.3239 54 51.6131 54 54C54 56.3869 53.0518 58.6761 51.364 60.364C49.6761 62.0518 47.3869 63 45 63C42.6131 63 40.3239 62.0518 38.636 60.364C36.9482 58.6761 36 56.3869 36 54C36 51.6131 36.9482 49.3239 38.636 47.636C40.3239 45.9482 42.6131 45 45 45ZM81 54C81 52.8065 80.5259 51.6619 79.682 50.818C78.8381 49.9741 77.6935 49.5 76.5 49.5C75.3065 49.5 74.1619 49.9741 73.318 50.818C72.4741 51.6619 72 52.8065 72 54C72 55.1935 72.4741 56.3381 73.318 57.182C74.1619 58.0259 75.3065 58.5 76.5 58.5C77.6935 58.5 78.8381 58.0259 79.682 57.182C80.5259 56.3381 81 55.1935 81 54ZM67.5 54C67.5 51.6131 68.4482 49.3239 70.136 47.636C71.8239 45.9482 74.1131 45 76.5 45C78.8869 45 81.1761 45.9482 82.864 47.636C84.5518 49.3239 85.5 51.6131 85.5 54C85.5 56.3869 84.5518 58.6761 82.864 60.364C81.1761 62.0518 78.8869 63 76.5 63C74.1131 63 71.8239 62.0518 70.136 60.364C68.4482 58.6761 67.5 56.3869 67.5 54ZM4.5 76.5V78.75C4.5 79.9875 3.4875 81 2.25 81C1.0125 81 0 79.9875 0 78.75V76.5C0 71.5359 4.03594 67.5 9 67.5H18C22.9641 67.5 27 71.5359 27 76.5V78.75C27 79.9875 25.9875 81 24.75 81C23.5125 81 22.5 79.9875 22.5 78.75V76.5C22.5 74.0109 20.4891 72 18 72H9C6.51094 72 4.5 74.0109 4.5 76.5ZM40.5 72C38.0109 72 36 74.0109 36 76.5V78.75C36 79.9875 34.9875 81 33.75 81C32.5125 81 31.5 79.9875 31.5 78.75V76.5C31.5 71.5359 35.5359 67.5 40.5 67.5H49.5C54.4641 67.5 58.5 71.5359 58.5 76.5V78.75C58.5 79.9875 57.4875 81 56.25 81C55.0125 81 54 79.9875 54 78.75V76.5C54 74.0109 51.9891 72 49.5 72H40.5ZM67.5 76.5V78.75C67.5 79.9875 66.4875 81 65.25 81C64.0125 81 63 79.9875 63 78.75V76.5C63 71.5359 67.0359 67.5 72 67.5H81C85.9641 67.5 90 71.5359 90 76.5V78.75C90 79.9875 88.9875 81 87.75 81C86.5125 81 85.5 79.9875 85.5 78.75V76.5C85.5 74.0109 83.4891 72 81 72H72C69.5109 72 67.5 74.0109 67.5 76.5Z" fill="#D9B166"/>
</g>
<defs>
<clipPath id="clip0_34_16">
<rect width="90" height="72" fill="white" transform="translate(0 9)"/>
</clipPath>
</defs>
</svg>
