<svg width="90" height="90" viewBox="0 0 90 90" fill="none" xmlns="http://www.w3.org/2000/svg">
<g clip-path="url(#clip0_34_35)">
<path d="M6 11.25C6 5.04492 11.0609 0 17.2857 0H76.5357C81.2087 0 85 3.7793 85 8.4375V64.6875C85 68.3613 82.6371 71.4902 79.3571 72.6504V84.375H82.1786C83.7304 84.375 85 85.6406 85 87.1875C85 88.7344 83.7304 90 82.1786 90H17.2857C11.0609 90 6 84.9551 6 78.75V11.25ZM17.2857 73.125C14.1645 73.125 11.6429 75.6387 11.6429 78.75C11.6429 81.8613 14.1645 84.375 17.2857 84.375H73.7143V73.125H17.2857ZM11.6429 69.0117C13.3004 68.0625 15.2225 67.5 17.2857 67.5H76.5357C78.0875 67.5 79.3571 66.2344 79.3571 64.6875V8.4375C79.3571 6.89062 78.0875 5.625 76.5357 5.625H17.2857C14.1645 5.625 11.6429 8.13867 11.6429 11.25V69.0117ZM51.1429 28.125C51.1429 26.6332 50.5483 25.2024 49.4901 24.1475C48.4319 23.0926 46.9966 22.5 45.5 22.5C44.0034 22.5 42.5681 23.0926 41.5099 24.1475C40.4517 25.2024 39.8571 26.6332 39.8571 28.125C39.8571 29.6168 40.4517 31.0476 41.5099 32.1025C42.5681 33.1574 44.0034 33.75 45.5 33.75C46.9966 33.75 48.4319 33.1574 49.4901 32.1025C50.5483 31.0476 51.1429 29.6168 51.1429 28.125ZM34.2143 28.125C34.2143 25.1413 35.4033 22.2798 37.5198 20.17C39.6363 18.0603 42.5068 16.875 45.5 16.875C48.4932 16.875 51.3637 18.0603 53.4802 20.17C55.5967 22.2798 56.7857 25.1413 56.7857 28.125C56.7857 31.1087 55.5967 33.9702 53.4802 36.08C51.3637 38.1897 48.4932 39.375 45.5 39.375C42.5068 39.375 39.6363 38.1897 37.5198 36.08C35.4033 33.9702 34.2143 31.1087 34.2143 28.125ZM29.7353 56.25C27.8308 56.25 26.3848 54.4746 27.2313 52.7695C29.5413 48.1641 34.3201 45 39.8571 45H51.1429C56.6623 45 61.4411 48.1641 63.7688 52.7695C64.6328 54.4746 63.1868 56.25 61.2647 56.25C59.9775 56.25 58.8841 55.4063 58.1612 54.3516C56.6446 52.1016 54.0701 50.625 51.1429 50.625H39.8571C36.9299 50.625 34.3554 52.1016 32.8388 54.3516C32.1158 55.4063 31.0225 56.25 29.7353 56.25Z" fill="#D9B166"/>
</g>
<defs>
<clipPath id="clip0_34_35">
<rect width="79" height="90" fill="white" transform="translate(6)"/>
</clipPath>
</defs>
</svg>
