<svg width="90" height="90" viewBox="0 0 90 90" fill="none" xmlns="http://www.w3.org/2000/svg">
<g clip-path="url(#clip0_34_30)">
<path d="M0 15C0 9.48438 4.48438 5 10 5H22.5C23.875 5 25 6.125 25 7.5C25 8.875 23.875 10 22.5 10H10C7.23437 10 5 12.2344 5 15V27.5C5 28.875 3.875 30 2.5 30C1.125 30 0 28.875 0 27.5V15ZM52.5 30C52.5 28.0109 51.7098 26.1032 50.3033 24.6967C48.8968 23.2902 46.9891 22.5 45 22.5C43.0109 22.5 41.1032 23.2902 39.6967 24.6967C38.2902 26.1032 37.5 28.0109 37.5 30C37.5 31.9891 38.2902 33.8968 39.6967 35.3033C41.1032 36.7098 43.0109 37.5 45 37.5C46.9891 37.5 48.8968 36.7098 50.3033 35.3033C51.7098 33.8968 52.5 31.9891 52.5 30ZM32.5 30C32.5 26.6848 33.817 23.5054 36.1612 21.1612C38.5054 18.817 41.6848 17.5 45 17.5C48.3152 17.5 51.4946 18.817 53.8388 21.1612C56.183 23.5054 57.5 26.6848 57.5 30C57.5 33.3152 56.183 36.4946 53.8388 38.8388C51.4946 41.183 48.3152 42.5 45 42.5C41.6848 42.5 38.5054 41.183 36.1612 38.8388C33.817 36.4946 32.5 33.3152 32.5 30ZM27.6094 39.8906C28.625 41.6719 29.9062 43.2812 31.4062 44.6719C30.5469 44.875 29.6562 44.9844 28.7344 44.9844C22.5156 44.9844 17.4844 39.9531 17.4844 33.7344C17.4844 28.3437 21.2813 23.8437 26.3438 22.7344C25.625 24.6094 25.1562 26.6094 25.0312 28.7031C23.4844 29.8437 22.4844 31.6719 22.4844 33.7344C22.4844 36.7969 24.6875 39.3437 27.5938 39.875L27.6094 39.8906ZM58.5781 44.6875C60.0781 43.2969 61.3594 41.6875 62.375 39.9062C65.2813 39.375 67.4844 36.8281 67.4844 33.7656C67.4844 31.7031 66.4844 29.875 64.9375 28.7344C64.8125 26.6406 64.3594 24.6406 63.625 22.7656C68.6875 23.8594 72.4844 28.375 72.4844 33.7656C72.4844 39.9844 67.4531 45.0156 61.2344 45.0156C60.3125 45.0156 59.4219 44.9063 58.5625 44.7031L58.5781 44.6875ZM12.5 66.25C12.5 59.1719 17.0156 53.1562 23.3281 50.9219C19.9531 54.8437 17.8281 59.8594 17.5312 65.3594C17.5156 65.6562 17.5 65.9531 17.5 66.25V67.5C17.5 68.875 16.375 70 15 70C13.625 70 12.5 68.875 12.5 67.5V66.25ZM66.6719 50.9219C72.9844 53.1562 77.5 59.1719 77.5 66.25V67.5C77.5 68.875 76.375 70 75 70C73.625 70 72.5 68.875 72.5 67.5V66.25C72.5 65.9531 72.4844 65.6562 72.4687 65.3594C72.1719 59.8594 70.0469 54.8437 66.6719 50.9219ZM25 66.25C25 57.2812 32.2812 50 41.25 50H48.75C57.7188 50 65 57.2812 65 66.25V67.5C65 68.875 63.875 70 62.5 70C61.125 70 60 68.875 60 67.5V66.25C60 60.0313 54.9687 55 48.75 55H41.25C35.0313 55 30 60.0313 30 66.25V67.5C30 68.875 28.875 70 27.5 70C26.125 70 25 68.875 25 67.5V66.25ZM80 5C85.5156 5 90 9.48438 90 15V27.5C90 28.875 88.875 30 87.5 30C86.125 30 85 28.875 85 27.5V15C85 12.2344 82.7656 10 80 10H67.5C66.125 10 65 8.875 65 7.5C65 6.125 66.125 5 67.5 5H80ZM0 75V62.5C0 61.125 1.125 60 2.5 60C3.875 60 5 61.125 5 62.5V75C5 77.7656 7.23437 80 10 80H22.5C23.875 80 25 81.125 25 82.5C25 83.875 23.875 85 22.5 85H10C4.48438 85 0 80.5156 0 75ZM80 85H67.5C66.125 85 65 83.875 65 82.5C65 81.125 66.125 80 67.5 80H80C82.7656 80 85 77.7656 85 75V62.5C85 61.125 86.125 60 87.5 60C88.875 60 90 61.125 90 62.5V75C90 80.5156 85.5156 85 80 85Z" fill="#D9B166"/>
</g>
<defs>
<clipPath id="clip0_34_30">
<rect width="90" height="80" fill="white" transform="translate(0 5)"/>
</clipPath>
</defs>
</svg>
