<svg width="90" height="90" viewBox="0 0 90 90" fill="none" xmlns="http://www.w3.org/2000/svg">
<path d="M45 12.5C45.9948 12.5 46.9488 12.1049 47.6522 11.4017C48.3556 10.6984 48.7507 9.74456 48.7507 8.75C48.7507 7.75544 48.3556 6.80161 47.6522 6.09835C46.9488 5.39509 45.9948 5 45 5C44.0052 5 43.0512 5.39509 42.3478 6.09835C41.6444 6.80161 41.2493 7.75544 41.2493 8.75C41.2493 9.74456 41.6444 10.6984 42.3478 11.4017C43.0512 12.1049 44.0052 12.5 45 12.5ZM45 0C46.1493 -1.71224e-08 47.2873 0.226326 48.3491 0.666054C49.4109 1.10578 50.3757 1.7503 51.1884 2.56282C52.0011 3.37533 52.6457 4.33992 53.0855 5.40152C53.5253 6.46312 53.7517 7.60093 53.7517 8.75C53.7517 9.89907 53.5253 11.0369 53.0855 12.0985C52.6457 13.1601 52.0011 14.1247 51.1884 14.9372C50.3757 15.7497 49.4109 16.3942 48.3491 16.8339C47.2873 17.2737 46.1493 17.5 45 17.5C43.8507 17.5 42.7127 17.2737 41.6509 16.8339C40.5891 16.3942 39.6243 15.7497 38.8116 14.9372C37.9989 14.1247 37.3543 13.1601 36.9145 12.0985C36.4747 11.0369 36.2483 9.89907 36.2483 8.75C36.2483 7.60093 36.4747 6.46312 36.9145 5.40152C37.3543 4.33992 37.9989 3.37533 38.8116 2.56282C39.6243 1.7503 40.5891 1.10578 41.6509 0.666054C42.7127 0.226326 43.8507 -1.71224e-08 45 0ZM32.4976 34.0781C32.3257 34.3281 32.1537 34.5938 31.9975 34.8594L22.1362 51.2813C21.4329 52.4688 19.8857 52.8438 18.698 52.1406C17.5103 51.4375 17.1352 49.8906 17.8384 48.7187L27.6997 32.2969C31.3567 26.2187 37.9205 22.5 45 22.5C52.0795 22.5 58.6433 26.2188 62.2846 32.2813L72.1459 48.7031C72.8492 49.8906 72.4741 51.4219 71.2864 52.125C70.0987 52.8281 68.5671 52.4531 67.8482 51.2656L58.0025 34.8594C57.8463 34.5938 57.6744 34.3281 57.5024 34.0781V87.5C57.5024 88.875 56.3772 90 55.002 90C53.6267 90 52.5015 88.875 52.5015 87.5V62.5H37.4985V87.5C37.4985 88.875 36.3733 90 34.998 90C33.6228 90 32.4976 88.875 32.4976 87.5V34.0781ZM52.5015 29.4844C50.251 28.2031 47.6724 27.5 45 27.5C42.3276 27.5 39.749 28.2031 37.4985 29.4844V57.5H52.5015V29.4844ZM5.7267 5.73438C6.69564 4.76563 8.28971 4.76563 9.25864 5.73438L24.2616 20.7344C25.2305 21.7031 25.2305 23.2969 24.2616 24.2656C23.2926 25.2344 21.6986 25.2344 20.7296 24.2656L5.7267 9.26562C4.75777 8.29687 4.75777 6.70313 5.7267 5.73438ZM84.2733 5.73438C85.2422 6.70313 85.2422 8.29687 84.2733 9.26562L69.2704 24.2656C68.3014 25.2344 66.7074 25.2344 65.7384 24.2656C64.7695 23.2969 64.7695 21.7031 65.7384 20.7344L80.7414 5.73438C81.7103 4.76563 83.3044 4.76563 84.2733 5.73438ZM9.25864 84.2656C8.28971 85.2344 6.69564 85.2344 5.7267 84.2656C4.75777 83.2969 4.75777 81.7031 5.7267 80.7344L20.7296 65.7344C21.6986 64.7656 23.2926 64.7656 24.2616 65.7344C25.2305 66.7031 25.2305 68.2969 24.2616 69.2656L9.25864 84.2656ZM84.2733 84.2656C83.3044 85.2344 81.7103 85.2344 80.7414 84.2656L65.7384 69.2656C64.7695 68.2969 64.7695 66.7031 65.7384 65.7344C66.7074 64.7656 68.3014 64.7656 69.2704 65.7344L84.2733 80.7344C85.2422 81.7031 85.2422 83.2969 84.2733 84.2656Z" fill="#D9B166"/>
</svg>
