<svg width="450" height="72" viewBox="0 0 450 72" fill="none" xmlns="http://www.w3.org/2000/svg">
<g clip-path="url(#clip0_7_245)">
<path d="M36 13.42L62.29 66H9.71L36 13.42ZM36 0L0 72H72L36 0Z" fill="white"/>
<path d="M36 6C52.54 6 66 19.46 66 36V66H6V36C6 19.46 19.46 6 36 6ZM36 0C16.12 0 0 16.12 0 36V72H72V36C72 16.12 55.88 0 36 0Z" fill="white"/>
<path d="M104.93 17.86H109.45L120.74 45.73C122.25 49.47 123.24 51.92 124.8 53.79V54H116.17V53.79C117.16 52.07 116.59 49.21 115.29 45.94L114.2 43.18H99.12L98.03 46.04C96.73 49.42 96.26 52.02 97.41 53.79V54H89.97V53.79C91.63 51.97 92.67 49.42 94.03 45.99L104.95 17.86H104.93ZM112.78 39.6L106.7 24.21H106.44L100.51 39.6H112.78Z" fill="white"/>
<path d="M125.62 17.86V17.6L131.6 16.92H131.76V47.91C131.76 50.87 131.92 52.38 132.85 53.79V54H125.83V53.79C126.77 52.39 126.92 50.88 126.92 47.91V23.47C126.92 20.61 126.61 19.21 125.62 17.85V17.86Z" fill="white"/>
<path d="M144.13 53.79V54H137.11V53.79C138.05 52.39 138.2 50.88 138.2 47.91V35.74C138.2 32.88 137.89 31.48 136.9 30.12V29.86L142.88 29.18H143.04V47.9C143.04 50.86 143.2 52.37 144.13 53.78V53.79ZM137.11 21.55C137.11 19.73 138.62 18.17 140.49 18.17C142.36 18.17 143.87 19.73 143.87 21.55C143.87 23.47 142.36 24.98 140.49 24.98C138.62 24.98 137.11 23.47 137.11 21.55Z" fill="white"/>
<path d="M148.5 61.44L149.02 58.58C151.26 60.04 154.01 60.97 156.92 60.97C162.07 60.97 165.92 58.42 165.92 51.92V49.16H165.61C163.95 51.97 161.24 53.53 157.86 53.53C152.19 53.53 147.51 48.85 147.51 41.52C147.51 34.19 152.71 28.73 158.95 28.73C161.65 28.73 164.46 29.87 166.18 32.27H166.44L167.53 29.36H170.7V51.82C170.7 60.71 164.93 64.77 158.01 64.77C154.11 64.77 150.89 63.37 148.49 61.44H148.5ZM165.87 42.25V39.91C165.87 35.07 163.43 31.95 159.58 31.95C155.47 31.95 152.46 35.64 152.46 41.05C152.46 46.04 155.22 49.79 159.43 49.79C163.07 49.79 165.88 46.67 165.88 42.25H165.87Z" fill="white"/>
<path d="M175.59 30.13V29.87L181.57 29.19H181.73V32.99H181.99C183.81 30.18 186.25 28.73 189.22 28.73C193.85 28.73 197.38 31.9 197.38 38.14V47.92C197.38 50.88 197.54 52.34 198.52 53.8V54.01H191.5V53.8C192.44 52.4 192.59 50.89 192.59 47.92V38.25C192.59 34.45 190.67 32.53 187.91 32.53C184.84 32.53 181.72 35.29 181.72 39.65V47.92C181.72 50.88 181.88 52.39 182.81 53.8V54.01H175.79V53.8C176.73 52.4 176.88 50.89 176.88 47.92V35.75C176.88 32.89 176.57 31.49 175.58 30.13H175.59Z" fill="white"/>
<path d="M221.66 31.22L220.98 29.35H224.57L230.81 48.8H231.02L235.34 35.49C236.17 32.79 236.43 31.02 235.71 29.51V29.35H241.07V29.51C239.61 31.12 238.94 32.84 238.05 35.59L231.91 54H229.2L223.12 34.97H222.91L216.31 54H213.66L207.68 35.54C206.85 32.94 206.12 31.02 204.77 29.51V29.35H211.01V29.51C210.02 31.07 210.39 32.84 211.27 35.49L215.43 48.65H215.64L221.67 31.23L221.66 31.22Z" fill="white"/>
<path d="M248.81 53.84V54H243.09V53.84C244.08 52.38 244.18 50.93 244.18 48.02V35.75C244.18 32.94 244.02 31.38 242.88 29.98V29.77L247.56 29.2H247.72V48.02C247.72 50.93 247.82 52.39 248.81 53.84Z" fill="white"/>
<path d="M256.29 47.97V31.95H251.25V29.66C255.93 29.56 256.76 28.62 256.97 23.63H259.78V29.35H266.75V31.95H259.78V47.86C259.78 50.72 261.13 51.86 263.37 51.81C264.51 51.81 265.5 51.6 266.7 51.03L267.06 52.95C265.66 53.99 264.1 54.51 262.43 54.51C259.05 54.51 256.29 52.59 256.29 47.96V47.97Z" fill="white"/>
<path d="M269.92 17.75V17.54L274.6 16.92H274.7V33.61H274.91C276.78 30.59 279.49 28.83 282.71 28.83C287.03 28.83 290.82 31.74 290.82 38.24V48.02C290.82 50.93 290.92 52.34 291.96 53.84V54H286.24V53.84C287.23 52.38 287.33 50.93 287.33 48.02V38.3C287.33 34.19 285.41 31.7 281.87 31.64C278.33 31.64 274.69 34.86 274.69 39.49V48.02C274.69 50.93 274.8 52.39 275.83 53.84V54H270.06V53.84C271.05 52.38 271.2 50.93 271.2 48.02V23.53C271.2 20.67 270.99 19.11 269.9 17.76L269.92 17.75Z" fill="white"/>
<path d="M301.59 18.07V17.86H314.8C326.5 17.86 334.25 25.14 334.25 35.9C334.25 46.66 326.5 54 314.8 54H301.59V53.79C302.89 51.92 303.2 49.84 303.2 45.99V25.87C303.2 22.07 302.89 19.89 301.59 18.07ZM328.63 35.9C328.63 26.12 322.65 21.34 313.6 21.34H308.35V50.51H313.6C322.65 50.51 328.63 45.67 328.63 35.9Z" fill="white"/>
<path d="M336.95 41.52C336.95 34.19 341.84 28.73 348.44 28.73C354.11 28.73 358.27 32.32 358.27 39.03V41.01H341.73C341.94 47.2 345.53 50.58 350.78 50.58C353.54 50.58 355.72 49.8 358.01 48.24L358.58 50.79C356.14 53.29 353.17 54.64 349.53 54.64C342.41 54.64 336.95 49.54 336.95 41.54V41.52ZM353.48 37.93C353.32 34.13 351.24 31.9 348.12 31.9C344.69 31.9 342.56 34.14 341.93 37.93H353.47H353.48Z" fill="white"/>
<path d="M361.12 52.28V47.55H361.43C363.36 50.1 365.96 51.29 368.61 51.29C371.05 51.29 373.5 50.25 373.5 47.91C373.5 46.25 372.41 45.52 370.07 44.48L366.48 42.92C363.2 41.46 361.64 39.23 361.64 36.37C361.64 32 365.44 28.73 370.64 28.73C372.98 28.73 375.43 29.35 377.19 30.34V35.02H376.93C375.42 33.04 373.19 32.06 370.69 32.06C368.19 32.06 365.9 33.26 365.9 35.39C365.9 37 366.84 37.94 369.18 38.93L373.08 40.54C376.2 41.84 377.81 43.87 377.81 46.94C377.81 51.57 373.76 54.64 368.71 54.64C365.95 54.64 363.2 53.81 361.12 52.3V52.28Z" fill="white"/>
<path d="M388.27 53.79V54H381.25V53.79C382.19 52.39 382.34 50.88 382.34 47.91V35.74C382.34 32.88 382.03 31.48 381.04 30.12V29.86L387.02 29.18H387.18V47.9C387.18 50.86 387.34 52.37 388.27 53.78V53.79ZM381.25 21.55C381.25 19.73 382.76 18.17 384.63 18.17C386.5 18.17 388.01 19.73 388.01 21.55C388.01 23.47 386.5 24.98 384.63 24.98C382.76 24.98 381.25 23.47 381.25 21.55Z" fill="white"/>
<path d="M392.63 61.44L393.15 58.58C395.39 60.04 398.14 60.97 401.05 60.97C406.2 60.97 410.05 58.42 410.05 51.92V49.16H409.74C408.08 51.97 405.37 53.53 401.99 53.53C396.32 53.53 391.64 48.85 391.64 41.52C391.64 34.19 396.84 28.73 403.08 28.73C405.79 28.73 408.59 29.87 410.31 32.27H410.57L411.66 29.36H414.83V51.82C414.83 60.71 409.06 64.77 402.14 64.77C398.24 64.77 395.02 63.37 392.62 61.44H392.63ZM410 42.25V39.91C410 35.07 407.56 31.95 403.71 31.95C399.6 31.95 396.59 35.64 396.59 41.05C396.59 46.04 399.35 49.79 403.56 49.79C407.2 49.79 410.01 46.67 410.01 42.25H410Z" fill="white"/>
<path d="M419.73 30.13V29.87L425.71 29.19H425.87V32.99H426.13C427.95 30.18 430.39 28.73 433.36 28.73C437.99 28.73 441.52 31.9 441.52 38.14V47.92C441.52 50.88 441.68 52.34 442.66 53.8V54.01H435.64V53.8C436.58 52.4 436.73 50.89 436.73 47.92V38.25C436.73 34.45 434.8 32.53 432.05 32.53C428.98 32.53 425.86 35.29 425.86 39.65V47.92C425.86 50.88 426.02 52.39 426.95 53.8V54.01H419.93V53.8C420.87 52.4 421.02 50.89 421.02 47.92V35.75C421.02 32.89 420.71 31.49 419.72 30.13H419.73Z" fill="white"/>
<path d="M441 22.5C441 19.92 442.9 18 445.47 18C448.04 18 449.97 19.92 449.97 22.5C449.97 25.08 448.05 27 445.47 27C442.89 27 441 25.08 441 22.5ZM449.03 22.5C449.03 20.38 447.52 18.81 445.46 18.81C443.4 18.81 441.91 20.38 441.91 22.5C441.91 24.62 443.42 26.19 445.46 26.19C447.5 26.19 449.03 24.62 449.03 22.5ZM443.9 20.37V20.31H445.72C446.64 20.31 447.31 20.76 447.31 21.52C447.31 22.11 446.84 22.53 446.16 22.67L447.76 24.52V24.55H446.65L445.16 22.71H444.94V23.75C444.94 24.15 444.99 24.34 445.13 24.48V24.54H443.9V24.48C444.04 24.34 444.07 24.15 444.07 23.75V21.09C444.07 20.7 444.04 20.5 443.9 20.36V20.37ZM446.4 21.52C446.4 21.08 446.09 20.85 445.5 20.85H444.94V22.17H445.5C446.08 22.17 446.4 21.94 446.4 21.52Z" fill="white"/>
</g>
<defs>
<clipPath id="clip0_7_245">
<rect width="449.97" height="72" fill="white"/>
</clipPath>
</defs>
</svg>
