<svg width="133" height="81" viewBox="0 0 133 81" fill="none" xmlns="http://www.w3.org/2000/svg">
<g clip-path="url(#clip0_1_49)">
<path d="M3.59 48.67H3.43V59.1C3.43 60.92 3.61 61.93 4.21 62.87V63H0V62.87C0.6 61.93 0.78 60.92 0.78 59.1V48.8C0.78 46.98 0.6 45.99 0 45.06V44.93H5.88L10.72 58.5H10.88L15.67 44.93H21.26V45.06C20.66 46 20.48 46.98 20.48 48.8V59.1C20.48 60.92 20.66 61.93 21.26 62.87V63H16.14V62.87C16.74 61.93 16.92 60.92 16.92 59.1V48.91H16.76L11.79 63H8.72L3.6 48.67H3.59Z" fill="#2A2A2A"/>
<path d="M32.71 44.93H35.78L41.42 58.97C42.15 60.76 42.64 61.91 43.47 62.87V63H37.93V62.87C38.48 61.91 38.22 60.66 37.59 59.02L37.25 58.16H30.31L30 58.97C29.35 60.69 29.17 61.93 29.82 62.87V63H25.17V62.87C26 61.91 26.55 60.69 27.17 59.07L32.71 44.93ZM36.35 55.8L33.83 49.27H33.67L31.2 55.8H36.35Z" fill="#2A2A2A"/>
<path d="M46.93 61.6V57.91H47.09C48.47 59.99 50.42 60.93 52.16 60.93C53.67 60.93 55.28 60.23 55.28 58.54C55.28 57.34 54.47 56.67 53.15 56.07L50.84 55C48.53 53.93 47.33 52.3 47.33 50.19C47.33 46.97 50.11 44.57 53.86 44.57C55.65 44.57 57.32 45.06 58.38 45.77V49.38H58.22C57.28 47.85 55.65 46.99 53.96 46.99C52.27 46.99 50.89 47.82 50.89 49.43C50.89 50.5 51.57 51.22 53.02 51.9L55.52 53.04C57.68 54.03 58.87 55.56 58.87 57.75C58.87 61.1 55.96 63.37 52.32 63.37C50.32 63.37 48.45 62.72 46.94 61.6H46.93Z" fill="#2A2A2A"/>
<path d="M68.64 47.27H67C64.74 47.27 63.54 47.74 62.94 48.83H62.78V44.93H78.15V48.83H77.99C77.37 47.74 76.2 47.27 73.93 47.27H72.29V59.1C72.29 60.92 72.45 61.93 73.2 62.87V63H67.71V62.87C68.46 61.93 68.62 60.92 68.62 59.1V47.27H68.64Z" fill="#2A2A2A"/>
<path d="M82.68 45.06V44.93H95.86V48.54H95.7C94.95 47.66 93.98 47.29 91.7 47.29H87.12V52.72H90.63C92.71 52.72 93.49 52.38 94.17 51.76H94.33V56.02H94.17C93.55 55.4 92.66 55.08 90.63 55.08H87.12V60.62H92.11C94.14 60.62 95.28 60.31 96.09 59.01H96.25V62.99H82.68V62.86C83.28 61.92 83.46 60.91 83.46 59.09V48.79C83.46 46.97 83.28 45.98 82.68 45.05V45.06Z" fill="#2A2A2A"/>
<path d="M101.24 45.06V44.93H108.05C112.11 44.93 114.78 46.8 114.78 49.79C114.78 51.97 113.3 53.64 110.85 54.37L117.64 62.95V63H113.12L107.01 54.89H105.68V59.1C105.68 60.92 105.86 61.93 106.46 62.87V63H101.23V62.87C101.83 61.93 102.01 60.92 102.01 59.1V48.8C102.01 46.98 101.83 45.99 101.23 45.06H101.24ZM110.99 49.82C110.99 48.05 109.61 47.22 107.58 47.22H105.68V52.6H107.53C109.69 52.6 110.99 51.56 110.99 49.82Z" fill="#2A2A2A"/>
<path d="M120.74 61.6V57.91H120.9C122.28 59.99 124.23 60.93 125.97 60.93C127.48 60.93 129.09 60.23 129.09 58.54C129.09 57.34 128.28 56.67 126.96 56.07L124.65 55C122.34 53.93 121.14 52.3 121.14 50.19C121.14 46.97 123.92 44.57 127.67 44.57C129.46 44.57 131.13 45.06 132.19 45.77V49.38H132.03C131.09 47.85 129.46 46.99 127.77 46.99C126.08 46.99 124.7 47.82 124.7 49.43C124.7 50.5 125.38 51.22 126.83 51.9L129.33 53.04C131.49 54.03 132.68 55.56 132.68 57.75C132.68 61.1 129.77 63.37 126.13 63.37C124.13 63.37 122.25 62.72 120.75 61.6H120.74Z" fill="#2A2A2A"/>
<path d="M30.52 74.61C30.52 70.99 33.05 68.46 36.6 68.46C40.15 68.46 42.69 70.99 42.69 74.61C42.69 78.23 40.14 80.75 36.6 80.75C33.06 80.75 30.52 78.25 30.52 74.61ZM40.09 74.61C40.09 71.87 38.81 70.07 36.6 70.07C34.39 70.07 33.12 71.87 33.12 74.61C33.12 77.35 34.39 79.11 36.6 79.11C38.81 79.11 40.09 77.34 40.09 74.61Z" fill="#2A2A2A"/>
<path d="M46.04 68.78V68.7H54.16V71.06H54.06C53.64 70.48 52.94 70.24 51.43 70.24H48.95V73.96H51.02C52.36 73.96 52.99 73.79 53.35 73.33H53.45V76.12H53.35C52.99 75.68 52.36 75.51 51.02 75.51H48.95V77.96C48.95 79.15 49.05 79.81 49.54 80.42V80.5H46.04V80.42C46.43 79.81 46.55 79.15 46.55 77.96V71.23C46.55 70.04 46.43 69.39 46.04 68.78Z" fill="#2A2A2A"/>
<path d="M64.85 71.15H64.75V77.97C64.75 79.16 64.87 79.82 65.26 80.43V80.51H62.51V80.43C62.9 79.82 63.02 79.16 63.02 77.97V71.24C63.02 70.05 62.9 69.4 62.51 68.79V68.71H66.35L69.51 77.58H69.61L72.74 68.71H76.39V68.79C76 69.4 75.88 70.05 75.88 71.24V77.97C75.88 79.16 76 79.82 76.39 80.43V80.51H73.04V80.43C73.43 79.82 73.55 79.16 73.55 77.97V71.31H73.45L70.2 80.52H68.19L64.84 71.15H64.85Z" fill="#2A2A2A"/>
<path d="M83.89 68.7H85.9L89.59 77.88C90.07 79.05 90.39 79.8 90.93 80.43V80.51H87.31V80.43C87.67 79.8 87.5 78.99 87.09 77.91L86.87 77.35H82.33L82.13 77.88C81.71 79 81.59 79.82 82.01 80.43V80.51H78.97V80.43C79.51 79.8 79.87 79 80.28 77.95L83.9 68.7H83.89ZM86.27 75.8L84.62 71.53H84.52L82.9 75.8H86.27Z" fill="#2A2A2A"/>
<path d="M95.51 75.85L92.88 71.26C92.23 70.14 91.81 69.46 91.11 68.78V68.7H94.92V68.78C94.7 69.44 95.02 70.21 95.51 71.11L97.06 73.95H97.16L98.72 71.2C99.31 70.15 99.64 69.4 99.47 68.79V68.71H102.53V68.79C101.73 69.5 101.22 70.27 100.57 71.37L97.9 75.91V77.97C97.9 79.16 98 79.82 98.49 80.43V80.51H94.9V80.43C95.39 79.82 95.49 79.16 95.49 77.97V75.86L95.51 75.85Z" fill="#2A2A2A"/>
<path d="M48.1 36V0L66.1 18L84.1 0V36H48.1Z" fill="#355C63"/>
<path d="M25.44 75.61H12.1L13.1 74.61L12.1 73.61H24.44L25.44 75.61Z" fill="#355C63"/>
<path d="M106.77 75.61H120.1L119.1 74.61L120.1 73.61H107.77L106.77 75.61Z" fill="#355C63"/>
</g>
<defs>
<clipPath id="clip0_1_49">
<rect width="132.68" height="80.75" fill="white"/>
</clipPath>
</defs>
</svg>
