<svg width="600" height="417" viewBox="0 0 600 417" fill="none" xmlns="http://www.w3.org/2000/svg">
<path d="M589.98 43.036C586.654 42.7046 583.374 42.0493 580.153 41.1854C573.703 39.454 567.499 36.9295 561.306 34.3714C555.113 31.8097 548.901 29.1809 542.4 27.1851C539.153 26.191 535.831 25.3606 532.439 24.8058C532.015 24.7388 531.591 24.6606 531.167 24.6048L529.884 24.4484C529.456 24.4 529.028 24.3329 528.6 24.3032L527.31 24.2026C526.451 24.1207 525.584 24.1095 524.721 24.0723C524.29 24.0574 523.858 24.0686 523.427 24.0649C522.995 24.0649 522.564 24.0611 522.132 24.0797L520.838 24.1207L519.547 24.1989C518.684 24.2399 517.833 24.3441 516.973 24.4149C515.266 24.6085 513.559 24.8319 511.874 25.1298C508.497 25.7032 505.175 26.4702 501.891 27.2968C495.326 28.9612 488.91 30.8974 482.482 32.3235C480.876 32.6735 479.269 33.0086 477.666 33.2767C476.862 33.4257 476.059 33.5374 475.259 33.6603L474.054 33.8204C473.652 33.8725 473.251 33.9246 472.853 33.9619L471.651 34.0847L470.45 34.1778L469.851 34.2225L469.252 34.2523L468.054 34.3081L466.857 34.323C466.459 34.323 466.057 34.3417 465.659 34.323C464.859 34.3044 464.06 34.3007 463.26 34.2448C456.851 33.9321 450.472 32.6102 444.138 30.8937C441.196 30.0894 438.261 29.1995 435.312 28.2724C435.896 28.1905 436.476 28.1011 437.052 27.9968C439.872 27.5053 442.643 26.7122 445.291 25.7777C447.947 24.8542 450.521 23.8303 453.121 22.9553C454.419 22.5196 455.724 22.1212 457.045 21.7935C457.372 21.7042 457.707 21.6334 458.038 21.5664L459.035 21.3542C459.704 21.2313 460.377 21.1196 461.051 21.0153C463.755 20.6355 466.507 20.5127 469.263 20.5648C472.019 20.6095 474.779 20.844 477.535 21.1568C480.292 21.4696 483.04 21.868 485.785 22.2701C483.066 21.7079 480.344 21.1494 477.602 20.6765C474.861 20.2036 472.098 19.8052 469.308 19.5967C466.518 19.3844 463.703 19.3435 460.887 19.5706C460.184 19.6376 459.481 19.7121 458.778 19.7977L457.729 19.9579C457.379 20.01 457.03 20.0658 456.68 20.1366C455.285 20.3972 453.913 20.7323 452.555 21.101C449.84 21.8382 447.195 22.717 444.558 23.4654C441.921 24.2212 439.295 24.8095 436.617 25.1186C432.79 25.5766 428.922 25.5431 425.128 25.0367C425.09 25.0255 425.057 25.0143 425.02 25.0032C421.791 23.9904 418.526 23.0074 415.197 22.1286C411.868 21.2499 408.487 20.4568 405.027 19.8648C403.298 19.5557 401.554 19.3472 399.813 19.1163C399.378 19.053 398.942 19.0195 398.507 18.9786L397.202 18.8557C396.331 18.7775 395.457 18.6844 394.591 18.6472L391.983 18.4945C391.113 18.4498 390.25 18.4387 389.383 18.4126L388.085 18.3754C387.65 18.3605 387.222 18.3679 386.791 18.3642L384.202 18.3568C377.325 18.4163 370.537 18.8371 363.875 19.1945C360.535 19.3807 357.236 19.5259 353.951 19.6302C352.318 19.6563 350.674 19.7158 349.056 19.7009C348.246 19.7009 347.431 19.7084 346.624 19.6972L344.206 19.6414C343.395 19.6302 342.611 19.5855 341.818 19.5483C341.03 19.5036 340.241 19.4515 339.456 19.3882C337.883 19.2616 336.317 19.0903 334.759 18.8818C331.646 18.4573 328.569 17.8615 325.572 17.0796C322.577 16.2865 319.65 15.3296 316.868 14.1381C314.075 12.9652 311.437 11.5577 308.99 9.95286C308.685 9.75179 308.391 9.53956 308.09 9.33104L307.64 9.02199C307.491 8.91773 307.35 8.80603 307.205 8.69805L306.338 8.04644L305.505 7.36504C305.367 7.24962 305.226 7.14164 305.092 7.02248L304.694 6.66503C304.43 6.42673 304.158 6.19587 303.902 5.95012C303.396 5.4549 302.875 4.97457 302.406 4.44956C302.276 4.31179 301.603 3.42933 300.643 2.14845C300.119 1.44843 299.621 0.726079 299.141 0H264.575C264.077 0.815442 263.545 1.61227 262.987 2.3942C261.447 4.54265 260.235 6.19959 260.015 6.39322C259.584 6.78418 259.119 7.14163 258.658 7.51026C258.178 7.86027 257.706 8.214 257.2 8.54166C256.195 9.20444 255.15 9.82999 254.042 10.3885C249.623 12.6524 244.498 14.0748 239.197 14.8641C236.542 15.2588 233.834 15.5008 231.107 15.5977C230.765 15.6088 230.43 15.6237 230.081 15.6274L229.032 15.6423C228.329 15.6498 227.633 15.6684 226.927 15.661L224.803 15.6498L222.66 15.6126C219.793 15.5493 216.888 15.445 213.946 15.3519C210.996 15.2625 208.013 15.1955 204.989 15.203C201.965 15.2216 198.9 15.3407 195.817 15.6051L193.5 15.8397L191.179 16.1599C190.405 16.253 189.631 16.4168 188.858 16.5546L187.697 16.7706C187.31 16.845 186.927 16.9456 186.54 17.0312L185.384 17.2993C185 17.3924 184.614 17.4706 184.234 17.586C183.475 17.802 182.709 18.0067 181.958 18.2376C181.214 18.4796 180.463 18.7179 179.726 18.9674L177.535 19.7642C174.645 20.8701 171.871 22.1286 169.174 23.4356C163.781 26.0532 158.681 28.8644 153.537 31.2586L152.574 31.7092L151.607 32.1374L150.64 32.5656C150.316 32.707 149.993 32.8336 149.669 32.9677C149.018 33.2321 148.371 33.5039 147.72 33.7608L145.745 34.4943C145.09 34.7512 144.417 34.9523 143.751 35.1832C143.085 35.4066 142.42 35.6374 141.743 35.831L139.719 36.438L137.677 36.9816C126.761 39.8003 115.267 40.5636 103.975 39.1785C98.3027 38.4784 92.5746 37.313 86.7015 36.4752C85.0352 36.2332 83.3503 36.0284 81.6579 35.8683C75.6509 34.647 69.7183 33.0198 63.9159 30.9868C57.5667 28.7713 51.2845 25.9787 44.5782 24.3441C42.9044 23.9383 41.2083 23.6031 39.5048 23.3686C37.8013 23.1303 36.0903 22.985 34.3793 22.892C30.9611 22.7132 27.5541 22.7542 24.1544 22.8212C20.7548 22.892 17.3403 23.0558 13.963 23.5398C10.5931 24.0239 7.25302 24.8505 4.14352 26.2282C7.3051 24.9734 10.6526 24.2845 14.0114 23.9345C17.3775 23.5845 20.766 23.5547 24.1544 23.618C27.5466 23.6851 30.9351 23.7781 34.2901 24.0835C35.9676 24.2436 37.6376 24.4484 39.2854 24.7462C40.9331 25.0404 42.5585 25.4276 44.1691 25.8856C50.6224 27.7288 56.7075 30.715 63.079 33.2283C65.3107 34.1108 67.5684 34.93 69.8448 35.6933C69.4989 35.7156 69.1529 35.7417 68.807 35.7677C62.8521 36.2332 57.0237 37.3726 51.3068 38.7577C45.5862 40.1466 39.966 41.7961 34.3459 43.3785C28.7257 44.9573 23.0981 46.4914 17.3775 47.6047C11.6644 48.7217 5.85077 49.4329 0 49.3845C5.83961 49.7159 11.7164 49.284 17.5188 48.435C23.325 47.5898 29.0567 46.3164 34.7624 45.0094C40.4644 43.695 46.1404 42.3211 51.8424 41.2226C57.5407 40.1242 63.2724 39.2976 68.9967 39.1263C71.857 39.037 74.7062 39.1114 77.533 39.3646C80.3598 39.629 83.1866 40.0684 86.0134 40.6194C91.6708 41.703 97.3468 43.1477 103.238 44.1679C115.07 46.2009 127.337 45.9961 139.195 43.5349L141.415 43.0546L143.621 42.5072C144.358 42.3322 145.087 42.12 145.816 41.9152C146.545 41.703 147.281 41.5168 147.999 41.2748L150.171 40.5822C150.889 40.3365 151.603 40.0795 152.321 39.8263C152.678 39.696 153.039 39.5769 153.392 39.4391L154.452 39.0295L155.512 38.6199L156.557 38.1917C162.129 35.913 167.411 33.3214 172.655 31.0873C177.896 28.8495 183.096 26.9729 188.367 26.0941C188.698 26.0383 189.025 25.9638 189.356 25.9191L190.36 25.7851C191.03 25.6995 191.692 25.5878 192.373 25.5431L194.403 25.3606L196.457 25.2526C199.205 25.1484 201.987 25.1744 204.807 25.2899C207.63 25.4165 210.483 25.6175 213.369 25.8447C216.259 26.0755 219.19 26.3213 222.158 26.5298L224.394 26.6787L226.651 26.7979C227.403 26.8426 228.165 26.8612 228.928 26.8872L230.07 26.9245C230.449 26.9394 230.847 26.9394 231.234 26.9431C234.351 26.9803 237.483 26.8575 240.629 26.5447C242.203 26.3809 243.78 26.1835 245.357 25.9191C246.934 25.6511 248.511 25.3383 250.088 24.9548C250.136 24.9436 250.185 24.9287 250.233 24.9175C247.213 28.3953 244.085 31.7166 240.748 34.7401C237.297 37.8678 233.626 40.6827 229.679 42.9354C225.736 45.1956 221.541 46.8861 217.133 47.8616C216.017 48.0776 214.913 48.3308 213.771 48.476L212.919 48.6026L212.495 48.6659L212.064 48.7106L210.338 48.8893C208.024 49.0792 205.681 49.1909 203.304 49.1723C202.121 49.1872 200.92 49.1425 199.726 49.1239C198.525 49.0792 197.323 49.0457 196.114 48.9824C193.7 48.8707 191.253 48.718 188.798 48.584C187.563 48.5207 186.336 48.4462 185.093 48.3978L183.23 48.3159L181.355 48.26C180.734 48.2377 180.106 48.2302 179.477 48.2265C178.848 48.2265 178.224 48.2116 177.595 48.2153L173.82 48.301C168.791 48.5095 163.796 49.0569 158.864 49.8946C151.477 51.1346 144.257 53.0782 137.235 55.5134C134.036 55.9937 130.848 56.4554 127.664 56.7756C123.911 57.1517 120.151 57.3565 116.42 57.1666C114.553 57.0735 112.701 56.8985 110.852 56.5969C109.004 56.3027 107.155 55.9118 105.31 55.4836C101.613 54.6235 97.9047 53.592 94.1034 52.8436C93.6273 52.7505 93.1512 52.6575 92.6751 52.5755L91.9572 52.4527L91.2356 52.3521C90.2723 52.2255 89.3164 52.058 88.3456 51.9947C87.3785 51.909 86.4151 51.8048 85.4444 51.7824L83.9938 51.7229C83.752 51.708 83.5102 51.7117 83.2685 51.7117H82.5431C78.6711 51.7229 74.8103 52.1138 71.0276 52.866C63.4658 54.3703 56.2091 57.3267 49.845 61.5901C56.3765 57.5836 63.6853 54.9474 71.1875 53.7671C74.9405 53.175 78.7418 52.9442 82.5208 53.0894L83.2313 53.1117C83.4693 53.1192 83.7036 53.1266 83.938 53.149L85.3514 53.2644C86.2961 53.3202 87.2297 53.4617 88.1633 53.5809C89.1006 53.6814 90.0268 53.8825 90.9529 54.0389L91.6485 54.1617L92.3403 54.3107C92.8015 54.4075 93.2627 54.5155 93.7202 54.6235C97.3988 55.4985 101.033 56.6676 104.752 57.6916C106.612 58.2054 108.498 58.682 110.413 59.0656C112.333 59.4565 114.285 59.7172 116.234 59.8959C119.348 60.1789 122.465 60.1938 125.563 60.0746L123.361 61.0353L119.995 62.6029C118.875 63.1279 117.774 63.6939 116.666 64.2338C112.247 66.453 107.921 68.8323 103.677 71.3344C99.4297 73.8329 95.275 76.4766 91.1798 79.2021C87.0847 81.9277 83.0564 84.739 79.0729 87.6098C71.1094 93.3588 63.3319 99.335 55.5545 105.311C63.5774 99.6701 71.6041 94.0328 79.7833 88.6449C87.9699 83.2682 96.2978 78.1186 104.905 73.5238C109.208 71.2265 113.575 69.0631 118.009 67.0673C119.121 66.5796 120.225 66.0732 121.349 65.604L124.711 64.2077L128.107 62.8933C128.669 62.6699 129.245 62.4726 129.814 62.2678L131.525 61.6571C140.668 58.4586 150.074 56.0421 159.607 54.8543C164.368 54.2511 169.155 53.9346 173.928 53.9421C178.692 53.9383 183.464 54.3628 188.318 54.832C189.389 54.9362 190.461 55.0442 191.532 55.1522C187.191 57.3416 183.245 60.2757 179.946 63.8093C176.955 67.0226 174.549 70.4669 171.614 73.2222C170.152 74.5888 168.549 75.7952 166.808 76.8452C165.068 77.8952 163.219 78.8037 161.318 79.6341C157.513 81.3022 153.511 82.6687 149.583 84.3406C145.648 86.0012 141.873 88.1273 138.466 90.6928C131.633 95.8163 126.113 102.608 122.591 110.289C126.47 102.783 132.258 96.3488 139.158 91.6684C140.891 90.5066 142.669 89.4194 144.532 88.496C144.763 88.3768 144.994 88.2539 145.224 88.1385L145.931 87.8108C146.403 87.5986 146.868 87.364 147.348 87.1667C147.828 86.9693 148.304 86.7645 148.787 86.5709L150.245 86.0087C154.158 84.5528 158.213 83.3799 162.219 81.8495C164.22 81.0825 166.213 80.2224 168.14 79.1835L169.568 78.3644C170.037 78.0739 170.494 77.7686 170.959 77.4707C171.867 76.8377 172.767 76.1787 173.604 75.4526C176.97 72.5595 179.592 69.145 182.505 66.3226C188.251 60.7188 195.813 57.081 203.639 56.0831C206.005 56.1836 208.4 56.1761 210.81 56.0831L212.748 55.9676L213.231 55.9378L213.719 55.8857L214.693 55.7852C215.991 55.6772 217.289 55.4426 218.591 55.2416C218.919 55.1969 219.238 55.115 219.562 55.0517L220.533 54.8431L221.504 54.6346C221.827 54.5676 222.147 54.4708 222.467 54.3889L223.43 54.1357C223.75 54.0463 224.066 53.9458 224.383 53.849L225.335 53.5585L226.276 53.2346C228.783 52.367 231.212 51.3096 233.551 50.0994C238.234 47.6829 242.519 44.6631 246.476 41.379C250.434 38.0875 254.075 34.5167 257.523 30.849C258.673 29.6277 259.8 28.3915 260.912 27.1516C260.718 28.5628 260.473 29.9703 260.168 31.3666C258.926 37.1082 256.817 42.6971 253.919 47.8467C252.468 50.4196 250.839 52.8995 249.009 55.2192L248.321 56.0905L247.607 56.9395C247.142 57.5129 246.633 58.0491 246.145 58.6039C245.137 59.6837 244.107 60.7449 243.017 61.739C238.695 65.7492 233.629 69.0892 228.225 71.9786C222.817 74.8755 217.074 77.359 211.249 79.8463C205.424 82.3336 199.495 84.8246 193.7 87.7885C187.917 90.7449 182.248 94.204 177.197 98.5307C174.683 100.705 172.347 103.055 170.178 105.531L169.375 106.465C169.107 106.778 168.836 107.087 168.583 107.411L167.05 109.336L166.79 109.686C165.547 110.971 164.212 112.174 162.788 113.287C161.266 114.437 159.652 115.487 157.975 116.448C156.286 117.39 154.527 118.232 152.73 119.002C150.922 119.755 149.07 120.425 147.192 121.035C139.656 123.452 131.663 124.625 123.688 126.107C121.691 126.479 119.697 126.87 117.704 127.298C115.714 127.734 113.727 128.211 111.756 128.747C109.788 129.298 107.836 129.905 105.909 130.601C103.99 131.32 102.104 132.113 100.267 133.01C98.4366 133.926 96.6512 134.928 94.9402 136.041C93.2404 137.177 91.6038 138.405 90.0789 139.757C88.5687 141.131 87.159 142.609 85.8981 144.203C84.6595 145.819 83.5734 147.539 82.6585 149.345C83.6627 147.584 84.8269 145.931 86.1287 144.393C87.4566 142.877 88.9184 141.489 90.4657 140.215C92.0316 138.957 93.6942 137.832 95.4126 136.804C97.1422 135.795 98.9387 134.905 100.769 134.097C102.61 133.312 104.488 132.627 106.393 132.02C108.304 131.435 110.242 130.932 112.195 130.493C114.151 130.065 116.123 129.693 118.102 129.361C120.084 129.037 122.074 128.747 124.071 128.479C128.066 127.942 132.087 127.47 136.119 126.878C138.135 126.576 140.151 126.245 142.17 125.861C144.186 125.463 146.199 125.012 148.2 124.491C150.197 123.951 152.187 123.344 154.151 122.637C156.089 121.918 158.008 121.114 159.883 120.19C159.611 120.663 159.336 121.132 159.072 121.605C157.499 124.431 156.029 127.298 154.634 130.191C151.841 135.981 149.409 141.883 146.857 147.658C145.578 150.544 144.265 153.404 142.855 156.204C142.494 156.9 142.156 157.607 141.78 158.293L140.664 160.355L139.496 162.381C139.102 163.055 138.682 163.707 138.272 164.369C136.606 166.994 134.78 169.508 132.76 171.853C130.748 174.207 128.516 176.344 126.084 178.288C121.241 182.201 115.758 185.385 110.354 188.736C107.653 190.419 104.949 192.128 102.368 194.023C101.71 194.477 101.081 194.973 100.441 195.457C99.8053 195.944 99.1619 196.417 98.5481 196.931L96.6921 198.447L94.8844 200.018C85.3142 208.481 77.4214 218.788 71.8124 230.186C77.7933 218.978 85.98 209.014 95.699 200.971L97.5327 199.478L99.4111 198.044C100.032 197.557 100.683 197.114 101.323 196.656C101.966 196.201 102.602 195.736 103.264 195.311C105.861 193.535 108.58 191.938 111.321 190.355C114.062 188.777 116.841 187.231 119.586 185.593C122.331 183.962 125.038 182.22 127.627 180.272C130.22 178.336 132.667 176.143 134.862 173.741C136.297 172.185 137.64 170.55 138.908 168.86C139.042 170.036 139.277 171.187 139.604 172.304C140.028 173.752 140.567 175.153 141.211 176.493C141.854 177.833 142.565 179.114 143.312 180.358C144.804 182.853 146.411 185.217 147.794 187.675C148.49 188.903 149.122 190.151 149.647 191.443C149.918 192.087 150.145 192.742 150.364 193.401C150.565 194.064 150.759 194.734 150.889 195.412C151.179 196.764 151.306 198.149 151.227 199.519C151.168 200.897 150.848 202.233 150.383 203.563C149.922 204.892 149.338 206.199 148.828 207.558C148.579 208.239 148.33 208.928 148.155 209.639C147.954 210.343 147.82 211.062 147.698 211.78C147.251 214.67 147.441 217.593 147.884 220.43C148.337 223.275 149.063 226.056 149.803 228.823C149.174 226.026 148.561 223.219 148.222 220.382C147.895 217.548 147.828 214.67 148.371 211.896C148.516 211.207 148.672 210.518 148.892 209.852C149.085 209.178 149.349 208.526 149.621 207.871C150.171 206.564 150.807 205.275 151.343 203.916C151.882 202.561 152.299 201.098 152.421 199.608C152.563 198.119 152.485 196.618 152.232 195.155C152.116 194.422 151.942 193.703 151.756 192.984C151.551 192.273 151.335 191.566 151.079 190.877C150.577 189.492 149.963 188.151 149.297 186.855C147.969 184.26 146.444 181.814 145.09 179.33C144.41 178.09 143.777 176.836 143.231 175.566C142.684 174.296 142.241 172.993 141.91 171.675C141.579 170.357 141.401 169.02 141.374 167.702C141.363 166.778 141.449 165.866 141.624 164.984C141.828 164.678 142.029 164.373 142.223 164.064L143.502 162.005L144.722 159.916C145.131 159.22 145.503 158.509 145.897 157.805C147.437 154.979 148.873 152.112 150.26 149.237C153.031 143.481 155.631 137.717 158.547 132.157C160.002 129.376 161.523 126.639 163.126 123.97C164.737 121.3 166.451 118.712 168.274 116.217L168.962 115.286L169.304 114.821L169.661 114.367L171.097 112.557L172.589 110.803C172.83 110.505 173.094 110.23 173.355 109.947L174.132 109.102C175.319 107.832 176.55 106.614 177.822 105.445C177.64 108.186 177.822 110.915 178.268 113.566C179.198 119.032 181.184 124.178 183.732 128.937C186.276 133.68 189.285 138.063 192.25 142.39C195.218 146.713 198.164 151.009 200.615 155.552C201.831 157.82 202.906 160.154 203.691 162.575C204.476 164.991 204.963 167.493 204.989 170.014C205.015 172.535 204.595 175.074 203.907 177.554C203.222 180.038 202.289 182.473 201.296 184.893C200.299 187.31 199.257 189.73 198.309 192.187C197.353 194.641 196.468 197.117 195.638 199.616C193.983 204.609 192.592 209.684 191.454 214.808C192.785 209.729 194.366 204.721 196.204 199.813C197.122 197.359 198.097 194.928 199.138 192.526C200.172 190.121 201.299 187.764 202.393 185.366C203.483 182.968 204.528 180.529 205.339 177.979C206.15 175.432 206.707 172.762 206.782 170.029C206.86 167.296 206.429 164.567 205.696 161.964C204.959 159.354 203.922 156.859 202.746 154.461C198.022 144.869 191.413 136.521 186.923 127.298C185.804 125.005 184.841 122.659 184.071 120.257C183.301 117.856 182.724 115.409 182.408 112.948C182.088 110.491 182.032 108.022 182.304 105.617C182.482 104.038 182.806 102.489 183.278 100.999C187.362 98.0653 191.826 95.6004 196.464 93.4184C202.066 90.7822 207.924 88.5369 213.845 86.2358C219.767 83.9347 225.774 81.5777 231.662 78.6734C236.207 76.4319 240.681 73.8329 244.858 70.7052C244.263 73.185 243.91 75.717 243.806 78.2564C243.702 81.265 243.943 84.2772 244.539 87.2225C245.126 90.1641 246.116 93.046 247.336 95.7083C249.753 101.055 252.844 105.84 254.905 110.941C255.931 113.48 256.686 116.102 256.876 118.76C257.081 121.415 256.686 124.085 255.794 126.643C254.894 129.201 253.555 131.629 251.996 133.926C250.43 136.224 248.634 138.379 246.778 140.528C244.925 142.676 243.025 144.825 241.284 147.122C240.853 147.699 240.425 148.284 240.019 148.88C239.603 149.472 239.235 150.093 238.851 150.708L238.282 151.631L237.765 152.581C237.423 153.214 237.066 153.839 236.765 154.495L236.296 155.466C236.14 155.79 235.984 156.114 235.846 156.446C235.567 157.109 235.277 157.764 235.005 158.427L234.239 160.434C233.99 161.104 233.767 161.785 233.533 162.459C232.621 165.17 231.833 167.91 231.078 170.658C229.575 176.15 228.176 181.665 226.172 186.993C228.362 181.736 229.962 176.251 231.65 170.826C232.499 168.111 233.38 165.412 234.373 162.761C234.63 162.102 234.875 161.439 235.143 160.784L235.969 158.832L236.861 156.915C237.007 156.595 237.17 156.282 237.334 155.973L237.825 155.038C238.137 154.409 238.509 153.81 238.863 153.206L239.398 152.302L239.982 151.43C240.376 150.853 240.748 150.261 241.172 149.703C241.585 149.14 242.02 148.589 242.459 148.042C244.23 145.864 246.175 143.812 248.113 141.723C250.051 139.634 251.981 137.482 253.703 135.136C255.418 132.787 256.947 130.251 258.037 127.47C258.58 126.081 258.993 124.629 259.257 123.135C259.521 121.642 259.625 120.119 259.562 118.608C259.454 115.573 258.702 112.628 257.698 109.869C256.69 107.098 255.437 104.481 254.183 101.915C252.93 99.3499 251.676 96.8328 250.631 94.2822C249.575 91.7317 248.801 89.1662 248.362 86.5113C247.923 83.8602 247.801 81.1607 247.986 78.4835C248.37 73.4121 249.872 68.4413 252.383 64.0997C252.893 63.5635 253.413 63.0385 253.901 62.48L254.749 61.5305L255.571 60.5587C257.758 57.9634 259.722 55.182 261.485 52.2814C264.836 46.752 267.391 40.7349 269.065 34.4571C269.188 36.2108 269.381 37.9497 269.627 39.67C270.315 44.3318 271.438 48.8558 272.814 53.2607C272.978 53.8155 273.164 54.3591 273.35 54.9027L273.9 56.5373C274.291 57.606 274.666 58.6858 275.072 59.747C275.477 60.8044 275.879 61.8693 276.303 62.9082L276.935 64.4758L277.579 66.0322C279.301 70.1764 281.109 74.2164 282.838 78.2378C284.575 82.2554 286.234 86.2507 287.677 90.2795C288.414 92.2902 289.057 94.312 289.675 96.3413C290.21 98.3818 290.817 100.411 291.226 102.489C291.482 103.55 291.683 104.619 291.873 105.691C291.75 107.177 291.557 108.647 291.274 110.088C290.902 111.913 290.4 113.7 289.701 115.398C289.001 117.092 288.112 118.716 287.049 120.261C284.94 123.363 282.239 126.144 279.379 128.795C276.508 131.454 273.495 134.004 270.497 136.607C268.998 137.907 267.506 139.228 266.041 140.576C264.572 141.924 263.132 143.313 261.745 144.754C260.358 146.199 259.007 147.677 257.754 149.245C256.497 150.808 255.325 152.447 254.261 154.145C252.171 157.563 250.475 161.245 249.53 165.136C248.541 169.009 248.392 173.09 249.177 176.973C248.589 173.052 248.946 169.039 250.107 165.293C251.222 161.528 253.064 158.021 255.262 154.8C256.381 153.199 257.594 151.669 258.892 150.213C260.186 148.749 261.578 147.372 263.002 146.031C264.427 144.691 265.907 143.406 267.421 142.151C268.931 140.896 270.467 139.668 272.022 138.45C275.128 136.015 278.282 133.606 281.354 131.037C284.423 128.464 287.436 125.686 289.961 122.357C291.207 120.726 292.312 118.947 293.212 117.055C294.134 133.33 290.82 149.918 283.43 164.552C281.503 168.376 279.353 172.114 277.013 175.778C274.685 179.449 272.238 183.069 269.734 186.692C267.235 190.315 264.706 193.952 262.236 197.654C259.774 201.362 257.389 205.16 255.176 209.073C252.349 214.052 249.913 219.32 247.99 224.753C247.09 226.175 246.097 227.549 245.022 228.86C243.047 231.247 240.823 233.451 238.439 235.495C233.655 239.58 228.295 243.054 222.843 246.409C220.116 248.092 217.353 249.734 214.611 251.465C211.874 253.193 209.177 255.003 206.562 256.935C203.951 258.871 201.422 260.938 199.053 263.194C196.695 265.458 194.485 267.897 192.588 270.585C190.695 273.27 189.088 276.178 187.954 279.276C187.388 280.821 186.935 282.411 186.596 284.02C186.258 285.624 186.023 287.244 185.856 288.86C185.525 292.096 185.417 295.317 185.194 298.511C185.079 300.109 184.93 301.699 184.707 303.274C184.677 303.471 184.655 303.668 184.621 303.866L184.513 304.454L184.298 305.631C184.175 306.416 183.963 307.187 183.784 307.965C182.263 314.165 179.574 320.055 176.356 325.6C173.135 331.155 169.431 336.428 165.704 341.667C169.553 336.517 173.384 331.334 176.747 325.831C178.432 323.083 179.983 320.245 181.329 317.304C182.676 314.366 183.818 311.324 184.666 308.189C184.87 307.403 185.101 306.625 185.246 305.824L185.491 304.629L185.614 304.033C185.651 303.832 185.681 303.631 185.715 303.434C185.982 301.829 186.172 300.217 186.325 298.608C186.63 295.391 186.808 292.178 187.21 289.02C187.411 287.442 187.675 285.878 188.036 284.344C188.396 282.809 188.865 281.309 189.438 279.849C190.587 276.926 192.183 274.19 194.054 271.665C195.928 269.137 198.112 266.839 200.444 264.702C202.783 262.572 205.29 260.621 207.887 258.789C210.486 256.961 213.176 255.248 215.917 253.61C218.651 251.972 221.455 250.393 224.241 248.762C229.806 245.511 235.37 242.104 240.477 237.949C242.18 236.556 243.828 235.071 245.387 233.488C245.331 233.727 245.268 233.965 245.212 234.199C244.126 238.582 243.438 243.039 242.928 247.5C242.816 248.617 242.69 249.734 242.597 250.851L242.381 254.206L242.329 255.044C242.314 255.323 242.311 255.602 242.303 255.881L242.255 257.561L242.206 259.24C242.18 259.798 242.206 260.357 242.199 260.919C242.165 269.867 242.987 278.77 244.345 287.557C245.703 296.356 247.682 304.972 249.273 313.618C250.069 317.941 250.776 322.271 251.26 326.62C251.743 330.969 252 335.337 251.911 339.701L251.851 341.335L251.821 342.154C251.814 342.426 251.803 342.698 251.777 342.97L251.661 344.601C251.628 345.144 251.557 345.688 251.505 346.232C251.408 347.319 251.252 348.402 251.115 349.486L250.869 351.109L250.743 351.921L250.598 352.729C250.233 354.889 249.768 357.033 249.288 359.174C248.79 361.312 248.247 363.441 247.67 365.564C245.353 374.053 242.504 382.42 240.116 390.928C239.528 393.058 238.948 395.192 238.435 397.34C238.301 397.876 238.174 398.412 238.055 398.952L237.691 400.568C237.468 401.652 237.23 402.728 237.036 403.819C236.207 408.16 235.671 412.558 235.489 416.967C235.775 412.562 236.415 408.19 237.345 403.882C237.564 402.802 237.829 401.734 238.074 400.658L238.476 399.057C238.61 398.52 238.747 397.988 238.892 397.459C239.454 395.329 240.083 393.218 240.719 391.107C243.3 382.677 246.342 374.392 248.875 365.91C249.508 363.788 250.107 361.654 250.657 359.509C251.196 357.357 251.717 355.201 252.137 353.016L252.301 352.2L252.446 351.377L252.736 349.735C252.9 348.633 253.086 347.535 253.212 346.429C253.276 345.874 253.361 345.323 253.41 344.768L253.569 343.104C253.599 342.825 253.618 342.549 253.633 342.27L253.685 341.436L253.785 339.764C253.982 335.303 253.822 330.839 253.436 326.404C253.049 321.969 252.439 317.568 251.739 313.193C250.497 305.418 248.961 297.726 247.841 290.018C248.225 290.528 248.623 291.027 249.028 291.511C250.363 293.06 251.803 294.505 253.354 295.797L254.522 296.758C254.916 297.074 255.292 297.409 255.704 297.696L256.921 298.586L257.527 299.029L257.832 299.252L258.144 299.461C261.455 301.721 264.947 303.65 268.474 305.448C272.003 307.247 275.57 308.922 279.082 310.687C282.593 312.452 286.052 314.306 289.325 316.447L289.942 316.842C290.147 316.976 290.344 317.121 290.541 317.263L291.739 318.112C292.554 318.655 293.294 319.296 294.064 319.895C295.596 321.109 297.036 322.438 298.389 323.853C299.743 325.268 301.015 326.761 302.194 328.329C303.37 329.9 304.445 331.546 305.427 333.248C305.925 334.097 306.375 334.968 306.825 335.843L307.458 337.176C307.67 337.619 307.852 338.077 308.049 338.528C308.811 340.341 309.47 342.203 310.017 344.098C309.526 342.188 308.923 340.304 308.209 338.464C308.023 338.006 307.852 337.541 307.655 337.09L307.056 335.735C306.628 334.845 306.204 333.952 305.724 333.084C304.783 331.341 303.749 329.651 302.607 328.031C301.458 326.415 300.216 324.862 298.888 323.392C297.56 321.917 296.132 320.521 294.61 319.244C293.844 318.611 293.108 317.937 292.301 317.36L291.11 316.462C290.91 316.313 290.716 316.161 290.512 316.019L289.898 315.602C286.636 313.331 283.192 311.354 279.71 309.477C276.229 307.6 272.71 305.821 269.266 303.94C265.825 302.06 262.455 300.068 259.32 297.785L259.022 297.577L258.736 297.353L258.163 296.91L257.017 296.02C256.627 295.734 256.277 295.399 255.909 295.086L254.819 294.136C253.376 292.863 252.067 291.463 250.869 289.992C249.694 288.506 248.634 286.931 247.823 285.256C247.503 284.612 247.22 283.953 246.975 283.286C246.149 275.865 245.744 268.411 245.948 260.986C245.967 260.443 245.956 259.899 245.993 259.355L246.078 257.728L246.164 256.101C246.179 255.829 246.19 255.557 246.209 255.286L246.279 254.474L246.566 251.231C246.685 250.151 246.833 249.078 246.964 248.002C247.555 243.713 248.318 239.442 249.456 235.283C250.575 231.12 251.899 227.013 253.625 223.081C253.834 222.586 254.034 222.087 254.25 221.599L254.942 220.143L255.634 218.687C255.749 218.445 255.861 218.2 255.983 217.961L256.363 217.246L257.877 214.394L259.502 211.59C261.719 207.874 264.114 204.248 266.617 200.666C269.132 197.088 271.724 193.539 274.321 189.961C276.921 186.386 279.502 182.756 281.99 179.032C284.49 175.32 286.84 171.455 288.979 167.449L289.775 165.941C289.905 165.687 290.043 165.442 290.169 165.185L290.538 164.41L292.003 161.316C292.461 160.27 292.888 159.212 293.331 158.162L293.662 157.373L293.826 156.978L293.974 156.576L294.562 154.968L295.15 153.359C295.246 153.091 295.351 152.823 295.436 152.551L295.693 151.736L296.716 148.466C297.021 147.368 297.303 146.262 297.597 145.156L297.817 144.33L297.925 143.916L298.014 143.499L298.378 141.824C298.906 139.601 299.245 137.341 299.635 135.088C299.914 132.82 300.253 130.556 300.391 128.274C300.617 125.995 300.647 123.705 300.736 121.419C300.707 119.129 300.74 116.839 300.573 114.549C300.543 113.678 300.484 112.807 300.409 111.939C301.346 113.023 302.321 114.065 303.314 115.07C305.739 117.517 308.283 119.762 310.813 121.966C312.081 123.068 313.334 124.159 314.569 125.262C315.808 126.364 317.024 127.485 318.229 128.62C319.423 129.763 320.61 130.91 321.755 132.094C322.336 132.679 322.89 133.286 323.459 133.881C324.009 134.492 324.575 135.092 325.11 135.713C326.204 136.942 327.234 138.216 328.25 139.504C328.741 140.159 329.25 140.803 329.715 141.474C329.953 141.809 330.195 142.136 330.425 142.475L331.11 143.492C331.344 143.827 331.556 144.177 331.776 144.519C331.991 144.866 332.218 145.208 332.427 145.558C332.839 146.262 333.267 146.958 333.643 147.681C334.439 149.107 335.134 150.581 335.793 152.074C337.069 155.072 338.084 158.188 338.69 161.387C339.326 164.578 339.523 167.847 339.315 171.09L339.196 172.3L339.137 172.907L339.044 173.51L338.854 174.717L338.605 175.916L338.482 176.515L338.329 177.111L338.028 178.303L337.679 179.483L337.504 180.075L337.307 180.663L336.916 181.836L336.488 183.002L336.276 183.586L336.049 184.167L335.596 185.325C334.967 186.863 334.316 188.397 333.643 189.931C332.304 192.992 330.931 196.067 329.741 199.225C324.954 211.877 324.322 225.982 327.881 238.902C324.705 225.881 325.787 211.933 330.853 199.664C332.122 196.589 333.568 193.584 335.004 190.553C335.726 189.041 336.425 187.511 337.109 185.969L337.608 184.804L337.857 184.219L338.091 183.631L338.564 182.451L339.003 181.255L339.222 180.656L339.423 180.049L339.821 178.835L340.174 177.603L340.349 176.984L340.498 176.359L340.795 175.108L341.034 173.838L341.149 173.201L341.234 172.561C341.29 172.133 341.35 171.705 341.402 171.276C341.729 167.843 341.621 164.366 341.048 160.97C339.947 154.16 337.247 147.688 333.628 141.872L332.94 140.785C332.709 140.424 332.464 140.074 332.226 139.716C331.757 138.998 331.248 138.312 330.757 137.612C329.741 136.238 328.703 134.879 327.61 133.572C327.074 132.906 326.509 132.273 325.958 131.621C325.389 130.988 324.835 130.344 324.255 129.722C323.109 128.464 321.926 127.25 320.736 126.04C319.539 124.841 318.33 123.657 317.099 122.499C315.871 121.337 314.632 120.194 313.409 119.062C310.958 116.794 308.547 114.534 306.327 112.155C305.218 110.963 304.155 109.75 303.169 108.491C302.187 107.233 301.28 105.933 300.472 104.593C299.97 103.744 299.513 102.88 299.104 102.001C299.033 101.629 298.962 101.26 298.884 100.891C298.49 98.6275 297.891 96.4046 297.355 94.1668C296.742 91.9551 296.095 89.7582 295.365 87.606C293.93 83.2868 292.301 79.0904 290.634 74.9686C288.972 70.8429 287.272 66.7843 285.702 62.7406L285.115 61.2252L284.545 59.7097C284.162 58.7007 283.805 57.6879 283.448 56.6788C283.087 55.6698 282.764 54.657 282.418 53.6442L281.949 52.1324C281.793 51.6298 281.633 51.1271 281.495 50.617C280.339 46.5696 279.427 42.4812 278.925 38.3928C278.438 34.3081 278.326 30.2309 278.736 26.2803C279.011 23.8601 279.483 21.4957 280.164 19.2132L281.168 19.2281C281.336 19.7456 281.507 20.2595 281.681 20.7733L282.712 23.4579C282.887 23.9047 283.05 24.3553 283.236 24.7947L283.816 26.109C284.207 26.9841 284.579 27.8665 284.988 28.7304L286.275 31.2958L286.599 31.9363C286.703 32.1522 286.811 32.3645 286.933 32.5693L287.636 33.8204C289.459 37.1827 291.598 40.3551 293.829 43.4418C294.997 44.9499 296.128 46.4839 297.389 47.9137L298.315 49.001L298.776 49.5446C298.933 49.7271 299.1 49.8946 299.26 50.0696L301.209 52.1585L301.696 52.6798C301.863 52.8511 302.035 53.0149 302.206 53.1787L303.229 54.1729L304.251 55.1671L304.765 55.6623L305.3 56.1352L307.443 58.023C307.621 58.1794 307.796 58.3395 307.982 58.4922L308.54 58.939L309.656 59.8289L310.772 60.7188C310.958 60.864 311.14 61.0204 311.333 61.1582L311.914 61.5752L314.231 63.2433C314.61 63.53 315.016 63.7795 315.414 64.0401L316.611 64.8146C317.411 65.3285 318.203 65.8572 319.022 66.3301C322.265 68.2626 325.512 69.9493 328.614 71.6658C330.768 72.8573 332.851 74.0675 334.815 75.367L334.77 75.3819C335.577 77.9213 335.904 80.6543 335.927 83.4581C335.949 86.2656 335.681 89.1401 335.361 92.0593C335.041 94.9823 334.662 97.9536 334.472 100.996C334.379 102.515 334.331 104.053 334.372 105.602C334.413 107.147 334.528 108.714 334.796 110.256C335.268 113.343 336.165 116.34 337.355 119.174C338.545 122.011 340.022 124.696 341.662 127.242C344.95 132.34 348.856 136.905 352.835 141.31C356.808 145.707 360.81 150.038 364.325 154.725C366.081 157.068 367.713 159.499 369.123 162.053C370.533 164.608 371.716 167.285 372.567 170.07C373.43 172.855 373.925 175.748 374.126 178.675C374.33 181.602 374.245 184.551 373.97 187.485C373.415 193.36 372.129 199.162 370.819 204.933C372.322 199.21 373.806 193.457 374.565 187.552C374.94 184.603 375.13 181.616 375.022 178.627C374.914 175.64 374.509 172.643 373.717 169.739C372.936 166.834 371.805 164.027 370.444 161.35C369.082 158.672 367.49 156.122 365.779 153.668C362.35 148.76 358.445 144.248 354.636 139.731C350.834 135.229 347.174 130.627 344.203 125.656C342.722 123.176 341.42 120.604 340.409 117.945C339.397 115.286 338.679 112.542 338.352 109.761C337.98 106.994 338.084 104.161 338.352 101.297C338.627 98.4339 339.092 95.5408 339.52 92.5881C339.944 89.6353 340.338 86.6156 340.42 83.4953C340.453 82.2107 340.427 80.9038 340.327 79.5894C341.874 80.9708 343.351 82.4639 344.772 84.0352C347.078 86.5933 349.235 89.3561 351.337 92.2194C355.525 97.9759 359.475 103.93 363.142 110.059C366.813 116.187 370.224 122.48 373.386 128.911C376.544 135.341 379.426 141.909 382.093 148.574C384.756 155.239 387.189 162.005 389.406 168.845L390.224 171.414C390.495 172.271 390.778 173.127 391.027 173.987L392.575 179.159C393.575 182.618 394.531 186.1 395.487 189.588C396.986 195.066 398.489 200.565 400.162 206.028C400.293 207.495 400.419 208.962 400.531 210.425C400.735 213.095 400.891 215.761 400.955 218.427C401.022 221.093 401.003 223.755 400.854 226.406C400.694 229.057 400.397 231.694 399.932 234.3C399.05 239.528 397.217 244.528 394.884 249.321C392.53 254.105 389.744 258.696 387.01 263.336C385.649 265.659 384.299 267.997 383.034 270.384C382.413 271.587 381.788 272.786 381.219 274.011L380.784 274.927L380.382 275.858L379.575 277.723C377.54 282.742 376.067 287.974 375.126 293.295C374.226 298.623 373.892 304.037 374.096 309.421C374.349 314.805 375.164 320.16 376.536 325.361C375.264 320.134 374.557 314.776 374.412 309.41C374.308 304.041 374.751 298.668 375.744 293.407C376.778 288.149 378.336 282.999 380.442 278.088L381.271 276.264L381.688 275.351L382.134 274.454C382.722 273.255 383.361 272.078 383.997 270.902C385.296 268.563 386.683 266.266 388.085 263.976C390.897 259.404 393.795 254.842 396.283 250.017C397.514 247.597 398.637 245.109 399.575 242.544L399.917 241.576C400.032 241.252 400.151 240.932 400.244 240.604L400.839 238.638L401.345 236.65C401.434 236.318 401.505 235.983 401.572 235.648L401.78 234.643C402.316 231.962 402.669 229.251 402.889 226.537C403.093 223.818 403.164 221.1 403.153 218.386C403.149 217.217 403.123 216.051 403.086 214.886C405.02 220.311 407.226 225.654 409.885 230.785C411.544 234.054 413.445 237.193 415.45 240.243L416.208 241.382L416.588 241.952L416.982 242.51L418.563 244.744C419.656 246.204 420.735 247.671 421.877 249.09C426.389 254.809 431.317 260.152 436.364 265.35C441.427 270.537 446.608 275.586 451.752 280.672L467.203 295.916L452.198 280.229C447.203 274.994 442.167 269.796 437.276 264.483C432.396 259.162 427.657 253.71 423.368 247.939C422.282 246.506 421.259 245.031 420.225 243.564L418.738 241.322L418.366 240.764L418.009 240.194L417.298 239.055C415.42 236.005 413.653 232.893 412.128 229.657C409.022 223.215 406.623 216.446 404.577 209.565C402.535 202.676 400.843 195.669 399.132 188.631C398.277 185.113 397.417 181.59 396.506 178.064L395.093 172.792C394.862 171.909 394.602 171.038 394.353 170.163L393.597 167.538C391.552 160.545 389.283 153.612 386.772 146.761C384.258 139.91 381.513 133.137 378.481 126.479C376.257 121.605 373.892 116.791 371.373 112.051C371.831 112.393 372.288 112.732 372.75 113.063C377.198 116.251 381.922 119.096 387.003 121.255C389.543 122.32 392.169 123.229 394.855 123.862C397.533 124.509 400.241 124.949 402.948 125.262C405.656 125.582 408.36 125.764 411.049 125.924C413.742 126.084 416.424 126.219 419.095 126.408C421.765 126.595 424.421 126.852 427.051 127.25L428.036 127.399C428.364 127.455 428.691 127.518 429.015 127.578C429.665 127.704 430.324 127.808 430.967 127.961L431.938 128.177L432.901 128.423C433.549 128.579 434.181 128.773 434.821 128.955C437.369 129.704 439.857 130.672 442.275 131.785C444.692 132.898 447.028 134.202 449.267 135.658C451.506 137.11 453.653 138.718 455.665 140.476C457.681 142.233 459.589 144.121 461.337 146.154C463.085 148.183 464.707 150.332 466.146 152.603C467.582 154.871 468.858 157.25 469.944 159.711C468.929 157.216 467.72 154.8 466.34 152.48C464.96 150.16 463.39 147.956 461.687 145.86C459.983 143.76 458.109 141.801 456.122 139.966C454.132 138.126 452.009 136.436 449.777 134.898C447.545 133.356 445.206 131.964 442.773 130.757C440.34 129.551 437.826 128.49 435.234 127.648C434.586 127.444 433.939 127.228 433.281 127.049L432.299 126.77L431.306 126.52C430.647 126.341 429.978 126.219 429.312 126.07C428.977 125.999 428.646 125.924 428.312 125.857L427.307 125.679C424.629 125.198 421.936 124.856 419.247 124.595C416.558 124.331 413.872 124.118 411.198 123.884C408.524 123.649 405.864 123.392 403.238 123.005C400.612 122.622 398.013 122.123 395.48 121.438C392.943 120.764 390.492 119.836 388.1 118.757C383.328 116.571 378.85 113.704 374.647 110.505C371.656 108.227 368.84 105.732 366.319 102.999C363.373 97.9648 360.248 93.0312 356.942 88.2055C354.848 85.1746 352.638 82.1586 350.18 79.2692C347.725 76.3835 345.006 73.6206 341.952 71.1818C338.902 68.7429 335.67 66.721 332.501 64.8444C329.328 62.9678 326.204 61.2252 323.284 59.3672C322.548 58.9129 321.852 58.414 321.145 57.9299L320.085 57.2001C319.732 56.9581 319.375 56.7198 319.04 56.4517L316.998 54.8878L316.489 54.4969C316.317 54.3665 316.161 54.2213 315.994 54.0873L315.012 53.2569L314.03 52.4266L313.539 52.0133C313.379 51.8718 313.227 51.7229 313.067 51.5776L311.188 49.8202L310.72 49.3808L310.273 48.9191L309.377 47.9957L308.48 47.0722C308.332 46.9196 308.179 46.7669 308.034 46.6105L307.61 46.1265L305.91 44.1977C305.769 44.0376 305.624 43.8812 305.49 43.7137L305.088 43.211L304.285 42.2056C303.188 40.8913 302.213 39.4763 301.205 38.0986C299.286 35.2651 297.448 32.3757 295.912 29.3224L295.317 28.1905C295.213 28.0043 295.124 27.8107 295.034 27.6171L294.767 27.0362L293.688 24.7165C293.346 23.9345 293.041 23.1414 292.713 22.3521L292.23 21.1717C292.074 20.777 291.944 20.3712 291.798 19.969L291.787 19.9355C298.122 26.4255 304.627 32.8485 311.586 38.8657C313.684 40.6716 315.808 42.4514 317.991 44.1716C320.178 45.8882 322.395 47.5712 324.679 49.1723C326.966 50.7697 329.291 52.3261 331.686 53.7819C334.085 55.2341 336.525 56.6192 339.032 57.8964C341.543 59.1624 344.102 60.3427 346.717 61.4039C349.339 62.4465 352.002 63.3811 354.71 64.1854C357.425 64.9673 360.178 65.6226 362.949 66.1439C365.716 66.6428 368.48 67.0152 371.232 67.3131C376.737 67.8902 382.182 68.1583 387.546 68.5195C390.231 68.6982 392.895 68.9067 395.535 69.186C396.86 69.3163 398.169 69.495 399.482 69.6589C400.784 69.8599 402.093 70.0387 403.383 70.303C403.893 70.3961 404.399 70.4967 404.905 70.5972C407.077 72.9579 408.866 75.7244 410.384 78.6697C412.15 82.0841 413.608 85.7182 415.13 89.3672C416.658 93.0125 418.239 96.6988 420.315 100.165C421.349 101.897 422.505 103.569 423.807 105.125C425.12 106.674 426.567 108.1 428.111 109.392C431.202 111.984 434.646 114.054 438.172 115.86C441.702 117.673 445.321 119.248 448.906 120.864C452.488 122.484 456.059 124.133 459.448 126.122C462.832 128.103 466.042 130.422 468.783 133.263C466.15 130.326 463.003 127.872 459.671 125.757C456.334 123.634 452.801 121.843 449.271 120.093C445.737 118.343 442.189 116.645 438.778 114.732C435.367 112.825 432.091 110.684 429.23 108.1C427.802 106.812 426.482 105.412 425.299 103.911C424.127 102.403 423.093 100.783 422.163 99.1004C420.307 95.7269 418.894 92.0928 417.51 88.4215C416.13 84.7464 414.787 80.9969 413.062 77.3404C412.165 75.4377 411.142 73.5536 409.96 71.7589C412.898 72.5185 415.81 73.4121 418.686 74.4324C423.688 76.2085 428.583 78.3532 433.351 80.766C442.896 85.5991 451.942 91.4934 460.656 97.8456C469.379 104.205 477.811 111.012 486.332 117.707C494.853 124.401 503.486 130.996 512.577 136.897C503.721 130.649 495.374 123.746 487.124 116.735C478.874 109.724 470.706 102.589 462.17 95.8461C453.638 89.1066 444.707 82.7767 435.115 77.4409C430.32 74.7787 425.362 72.3696 420.233 70.3216C415.107 68.2737 409.807 66.5907 404.38 65.3843C403.03 65.0529 401.661 64.8109 400.296 64.5465C398.931 64.3194 397.566 64.0811 396.201 63.8912C393.471 63.4928 390.745 63.1726 388.037 62.8896C382.618 62.3124 377.254 61.8396 372.01 61.0837C370.224 60.8193 368.454 60.5214 366.698 60.1826C366.698 60.1789 366.698 60.1789 366.698 60.1789C367.26 60.1156 367.814 59.9927 368.368 59.8773C368.844 59.773 369.324 59.6911 369.796 59.5608L371.214 59.1959L372.605 58.764C372.835 58.6895 373.07 58.6225 373.296 58.5443L373.977 58.3023C374.431 58.1384 374.888 57.982 375.335 57.807C377.128 57.1107 378.879 56.3474 380.602 55.5469C382.32 54.7463 384.02 53.916 385.708 53.1043C387.401 52.2926 389.089 51.492 390.804 50.7659C391.232 50.5872 391.66 50.3936 392.091 50.226L393.385 49.7196C393.817 49.5446 394.256 49.4106 394.695 49.2542C395.134 49.1015 395.569 48.9414 396.011 48.8185L397.339 48.4239C397.786 48.3084 398.236 48.2079 398.682 48.0962C398.905 48.0441 399.128 47.9845 399.355 47.9361L400.036 47.8169C400.49 47.7387 400.944 47.6456 401.397 47.5823C403.224 47.3254 405.076 47.2547 406.932 47.3031C408.788 47.3478 410.644 47.5675 412.481 47.8765C414.323 48.1856 416.153 48.5951 417.96 49.0904C421.583 50.0659 425.131 51.3319 428.661 52.6388C425.195 51.1718 421.706 49.7457 418.105 48.5989C416.309 48.018 414.479 47.5191 412.626 47.1206C410.774 46.7222 408.892 46.4132 406.988 46.2791C405.087 46.1414 403.164 46.1265 401.249 46.3052C400.772 46.3499 400.296 46.4243 399.82 46.4839L399.106 46.577C398.868 46.618 398.634 46.6664 398.399 46.7111C397.927 46.8041 397.455 46.8898 396.986 46.9866L395.591 47.3329C395.122 47.4409 394.669 47.5824 394.207 47.7201C393.75 47.8616 393.285 47.9808 392.835 48.1409L391.477 48.5989C391.024 48.7478 390.585 48.9265 390.135 49.0904C388.349 49.7531 386.601 50.4867 384.864 51.2239C383.127 51.9649 381.405 52.7096 379.675 53.4208C377.95 54.1282 376.216 54.7947 374.472 55.3793C374.037 55.5283 373.594 55.6511 373.159 55.7889L372.5 55.99C372.281 56.057 372.058 56.1054 371.838 56.165L370.514 56.5113L369.183 56.7905C368.74 56.8948 368.29 56.9506 367.844 57.0251C367.397 57.0958 366.951 57.174 366.497 57.215C366.047 57.2634 365.597 57.3193 365.147 57.3639L363.793 57.4533C360.721 57.6097 357.634 57.39 354.621 56.8203C352.902 56.1836 351.203 55.491 349.525 54.7463C347.16 53.6814 344.839 52.4973 342.562 51.2388C333.461 46.1451 325.181 39.5508 317.444 32.3198C314.599 29.6612 311.828 26.9133 309.098 24.1021C310.169 24.5712 311.248 25.0106 312.334 25.4165C315.782 26.7234 319.293 27.7064 322.819 28.4809C326.349 29.2442 329.897 29.7767 333.446 30.1081C335.22 30.2719 336.998 30.391 338.772 30.4581C339.661 30.4916 340.546 30.5139 341.432 30.5251C342.317 30.5288 343.209 30.54 344.072 30.5176L346.683 30.4692C347.554 30.4469 348.413 30.3985 349.28 30.365C351.013 30.3054 352.72 30.1714 354.439 30.0708C357.849 29.8176 361.245 29.5272 364.593 29.1995C371.307 28.5516 377.894 27.874 384.425 27.5426C390.946 27.241 397.403 27.2857 403.733 28.116C410.086 28.9501 416.461 30.4841 422.885 32.2118C426.891 33.2842 430.923 34.4273 435.01 35.5071C436.859 36.1959 438.678 36.9295 440.445 37.7486C440.869 37.9497 441.304 38.1322 441.717 38.3481L442.966 38.9848C443.39 39.1896 443.781 39.4354 444.19 39.6625L444.796 40.0088L445.101 40.1801L445.395 40.3662L446.567 41.1184L446.861 41.3046L447.143 41.5094L447.705 41.9189L448.267 42.3248L448.549 42.5296L448.817 42.7493L449.885 43.6317C452.693 46.0334 455.051 49.0345 457.391 52.1027C458.562 53.6405 459.73 55.2006 460.965 56.7235L461.43 57.2932L461.91 57.8554L462.869 58.9762C463.186 59.3523 463.532 59.7023 463.859 60.0672C464.194 60.4284 464.521 60.7933 464.859 61.147C467.582 63.9768 470.528 66.5721 473.66 68.9067L474.244 69.3498L474.843 69.7706L476.04 70.6121C476.434 70.8988 476.855 71.1483 477.26 71.4201L478.488 72.2132L479.741 72.9653C480.161 73.2148 480.571 73.4717 481.002 73.7026C481.857 74.168 482.698 74.6595 483.572 75.084C487.035 76.8564 490.632 78.342 494.325 79.5149C490.699 78.1521 487.195 76.4915 483.859 74.559C483.014 74.0935 482.207 73.5611 481.389 73.0584C480.976 72.8127 480.582 72.5334 480.18 72.2653L478.982 71.461L477.814 70.6158C477.428 70.3291 477.03 70.061 476.654 69.7594L475.516 68.8732L474.95 68.4301L474.4 67.9684C471.443 65.5146 468.694 62.83 466.187 59.9406C465.875 59.5794 465.574 59.2071 465.269 58.8384C464.967 58.4661 464.651 58.1086 464.361 57.7288L463.487 56.5932L463.052 56.0272L462.628 55.4463C461.501 53.9011 460.429 52.3 459.332 50.6989C458.235 49.0941 457.115 47.4855 455.903 45.9142C455.293 45.1323 454.668 44.3541 453.998 43.6057C453.671 43.2259 453.321 42.861 452.979 42.4886L452.447 41.9487L452.18 41.6806L451.901 41.4237L450.781 40.396L450.502 40.1391L450.208 39.9008L449.617 39.4242L449.025 38.9476L448.728 38.7093L448.598 38.6162C453.336 39.4689 458.164 40.0386 463.059 40.0721C463.933 40.0944 464.811 40.0609 465.689 40.046C466.128 40.046 466.567 40.0125 467.006 39.9902L468.322 39.9157L469.635 39.8003L470.29 39.7407L470.941 39.6625L472.243 39.5061L473.537 39.3162C473.968 39.2566 474.396 39.1822 474.824 39.1077C475.252 39.0332 475.679 38.9625 476.107 38.8843C476.955 38.7167 477.807 38.5604 478.648 38.3667C480.336 38.0093 481.999 37.5885 483.654 37.1566C490.264 35.3954 496.616 33.1799 502.984 31.2847C504.16 30.9347 505.335 30.5958 506.514 30.2719C507.384 30.1825 508.266 30.1788 509.155 30.2644C510.613 30.4134 512.078 30.7746 513.507 31.3145C516.374 32.3868 519.082 34.0661 521.656 35.9428C522.947 36.8885 524.2 37.8827 525.457 38.9178C526.715 39.9455 527.968 40.9843 529.222 42.0269C531.725 44.1158 534.224 46.2196 536.768 48.2786C541.853 52.3931 547.146 56.34 552.907 59.4938C553.622 59.8996 554.358 60.2608 555.083 60.6443C555.823 61.0018 556.552 61.3741 557.304 61.7055C558.792 62.3944 560.317 63.0013 561.856 63.5561L563.017 63.9582L564.189 64.3231C564.579 64.4497 564.973 64.554 565.368 64.662C565.762 64.7662 566.153 64.8854 566.554 64.9747C568.142 65.3694 569.749 65.6598 571.364 65.887C569.76 65.5891 568.168 65.2316 566.61 64.7699C566.219 64.662 565.833 64.5279 565.446 64.4088C565.059 64.2859 564.672 64.163 564.289 64.0215L563.143 63.6082L562.013 63.1577C560.51 62.5433 559.03 61.8768 557.587 61.1321C556.857 60.7746 556.154 60.3725 555.44 59.989C554.741 59.5794 554.031 59.1884 553.343 58.7602C547.789 55.3979 542.746 51.2835 537.877 46.9791C535.441 44.827 533.042 42.6227 530.628 40.4221C529.422 39.3237 528.21 38.2252 526.986 37.1343C525.77 36.0433 524.513 34.9523 523.218 33.9135C521.916 32.8746 520.57 31.8767 519.142 30.9645C517.717 30.0485 516.215 29.2219 514.619 28.5442C514.53 28.507 514.437 28.4697 514.344 28.4325C515.359 28.2389 516.378 28.0676 517.401 27.9075C518.208 27.8069 519.019 27.6766 519.83 27.6022L521.046 27.4793L522.262 27.3899C522.668 27.3527 523.073 27.3415 523.482 27.3266C523.888 27.3117 524.297 27.2894 524.702 27.2819C525.513 27.2819 526.328 27.2559 527.139 27.3006L528.359 27.3452C528.764 27.3527 529.17 27.4048 529.579 27.4309L530.799 27.5277C531.204 27.5649 531.61 27.6245 532.015 27.6692C535.266 28.0601 538.498 28.7229 541.701 29.5607C548.109 31.2363 554.384 33.5821 560.689 35.8869C566.989 38.188 573.353 40.4742 579.944 41.9487C583.236 42.6823 586.576 43.2073 589.939 43.4009C593.301 43.5945 596.678 43.453 599.989 42.9057C596.66 43.3152 593.294 43.3152 589.969 42.9839L589.98 43.036Z" fill="#E3C67F"/>
</svg>
