<svg width="600" height="417" viewBox="0 0 600 417" fill="none" xmlns="http://www.w3.org/2000/svg">
<path d="M589.98 373.931C586.654 374.262 583.374 374.917 580.153 375.781C573.703 377.513 567.499 380.037 561.306 382.595C555.113 385.157 548.902 387.786 542.4 389.781C539.153 390.776 535.831 391.606 532.439 392.161C532.015 392.228 531.591 392.306 531.167 392.362L529.884 392.518C529.456 392.567 529.028 392.634 528.6 392.663L527.31 392.764C526.451 392.846 525.584 392.857 524.721 392.894C524.29 392.909 523.858 392.898 523.427 392.902C522.995 392.902 522.564 392.905 522.132 392.887L520.838 392.846L519.547 392.768C518.684 392.727 517.833 392.622 516.973 392.552C515.266 392.358 513.559 392.135 511.874 391.837C508.497 391.263 505.175 390.496 501.891 389.67C495.326 388.005 488.91 386.069 482.482 384.643C480.876 384.293 479.269 383.958 477.666 383.69C476.862 383.541 476.059 383.429 475.259 383.306L474.054 383.146C473.652 383.094 473.251 383.042 472.853 383.005L471.651 382.882L470.45 382.789L469.851 382.744L469.252 382.714L468.054 382.658L466.857 382.644C466.459 382.644 466.057 382.625 465.659 382.644C464.859 382.662 464.06 382.666 463.26 382.722C456.851 383.034 450.472 384.356 444.138 386.073C441.196 386.877 438.261 387.767 435.312 388.694C435.896 388.776 436.476 388.865 437.052 388.97C439.872 389.461 442.643 390.254 445.291 391.189C447.947 392.112 450.521 393.136 453.121 394.011C454.419 394.447 455.724 394.845 457.045 395.173C457.372 395.262 457.707 395.333 458.038 395.4L459.035 395.612C459.704 395.735 460.377 395.847 461.051 395.951C463.755 396.331 466.507 396.454 469.263 396.402C472.019 396.357 474.779 396.123 477.535 395.81C480.292 395.497 483.04 395.099 485.785 394.696C483.066 395.259 480.344 395.817 477.602 396.29C474.861 396.763 472.098 397.161 469.308 397.37C466.518 397.582 463.703 397.623 460.887 397.396C460.184 397.329 459.481 397.254 458.778 397.169L457.729 397.009C457.379 396.957 457.03 396.901 456.68 396.83C455.285 396.569 453.913 396.234 452.555 395.866C449.84 395.128 447.195 394.25 444.558 393.501C441.921 392.745 439.295 392.157 436.617 391.848C432.79 391.39 428.922 391.423 425.128 391.93C425.09 391.941 425.057 391.952 425.02 391.963C421.791 392.976 418.526 393.959 415.197 394.838C411.868 395.717 408.487 396.51 405.027 397.102C403.298 397.411 401.554 397.619 399.813 397.85C399.378 397.914 398.942 397.947 398.507 397.988L397.202 398.111C396.331 398.189 395.457 398.282 394.591 398.319L391.983 398.472C391.113 398.517 390.25 398.528 389.383 398.554L388.085 398.591C387.65 398.606 387.222 398.599 386.791 398.602L384.202 398.61C377.325 398.55 370.537 398.129 363.875 397.772C360.535 397.586 357.236 397.441 353.951 397.336C352.318 397.31 350.674 397.251 349.056 397.266C348.246 397.266 347.431 397.258 346.624 397.269L344.206 397.325C343.395 397.336 342.611 397.381 341.818 397.418C341.03 397.463 340.241 397.515 339.456 397.578C337.883 397.705 336.317 397.876 334.759 398.085C331.646 398.509 328.569 399.105 325.572 399.887C322.577 400.68 319.65 401.637 316.868 402.828C314.075 404.001 311.437 405.409 308.99 407.014C308.685 407.215 308.391 407.427 308.09 407.636L307.64 407.945C307.491 408.049 307.35 408.161 307.205 408.269L306.338 408.92L305.505 409.602C305.367 409.717 305.226 409.825 305.092 409.944L304.694 410.302C304.43 410.54 304.158 410.771 303.902 411.016C303.396 411.512 302.875 411.992 302.406 412.517C302.276 412.655 301.603 413.537 300.643 414.818C300.119 415.518 299.621 416.24 299.141 416.967H264.575C264.077 416.151 263.545 415.354 262.987 414.572C261.447 412.424 260.235 410.767 260.015 410.573C259.584 410.182 259.119 409.825 258.658 409.456C258.178 409.106 257.706 408.753 257.2 408.425C256.195 407.762 255.15 407.137 254.042 406.578C249.623 404.314 244.498 402.892 239.197 402.102C236.542 401.708 233.834 401.466 231.107 401.369C230.765 401.358 230.43 401.343 230.081 401.339L229.032 401.324C228.329 401.317 227.633 401.298 226.927 401.306L224.803 401.317L222.66 401.354C219.793 401.417 216.888 401.522 213.946 401.615C210.996 401.704 208.013 401.771 204.989 401.764C201.965 401.745 198.9 401.626 195.817 401.361L193.5 401.127L191.179 400.807C190.405 400.714 189.631 400.55 188.858 400.412L187.697 400.196C187.31 400.122 186.927 400.021 186.54 399.935L185.384 399.667C185 399.574 184.614 399.496 184.234 399.381C183.475 399.165 182.709 398.96 181.958 398.729C181.214 398.487 180.463 398.249 179.726 397.999L177.535 397.202C174.645 396.096 171.871 394.838 169.174 393.531C163.781 390.913 158.681 388.102 153.537 385.708L152.574 385.257L151.607 384.829L150.64 384.401C150.316 384.26 149.993 384.133 149.669 383.999C149.018 383.734 148.371 383.463 147.72 383.206L145.745 382.472C145.09 382.215 144.417 382.014 143.751 381.783C143.085 381.56 142.42 381.329 141.743 381.136L139.719 380.529L137.677 379.985C126.761 377.166 115.267 376.403 103.975 377.788C98.3027 378.488 92.5746 379.654 86.7015 380.491C85.0352 380.733 83.3503 380.938 81.6579 381.098C75.6509 382.32 69.7183 383.947 63.9159 385.98C57.5667 388.195 51.2845 390.988 44.5782 392.622C42.9044 393.028 41.2083 393.363 39.5048 393.598C37.8013 393.836 36.0903 393.982 34.3793 394.075C30.9611 394.253 27.5541 394.212 24.1544 394.145C20.7548 394.075 17.3403 393.911 13.963 393.427C10.5931 392.943 7.25302 392.116 4.14352 390.738C7.3051 391.993 10.6526 392.682 14.0114 393.032C17.3775 393.382 20.766 393.412 24.1544 393.349C27.5466 393.281 30.9351 393.188 34.2901 392.883C35.9676 392.723 37.6376 392.518 39.2854 392.22C40.9331 391.926 42.5585 391.539 44.1691 391.081C50.6224 389.238 56.7075 386.252 63.079 383.738C65.3107 382.856 67.5684 382.037 69.8448 381.273C69.4989 381.251 69.1529 381.225 68.807 381.199C62.8521 380.733 57.0237 379.594 51.3068 378.209C45.5862 376.82 39.966 375.17 34.3459 373.588C28.7257 372.009 23.0981 370.475 17.3775 369.362C11.6644 368.245 5.85077 367.534 0 367.582C5.83961 367.251 11.7164 367.683 17.5188 368.532C23.325 369.377 29.0567 370.65 34.7624 371.957C40.4644 373.272 46.1404 374.645 51.8424 375.744C57.5407 376.842 63.2724 377.669 68.9967 377.84C71.857 377.93 74.7062 377.855 77.533 377.602C80.3598 377.338 83.1866 376.898 86.0134 376.347C91.6708 375.264 97.3468 373.819 103.238 372.799C115.07 370.766 127.337 370.97 139.195 373.432L141.415 373.912L143.621 374.459C144.358 374.634 145.087 374.847 145.816 375.051C146.545 375.264 147.281 375.45 147.999 375.692L150.171 376.384C150.889 376.63 151.603 376.887 152.321 377.14C152.678 377.271 153.039 377.39 153.392 377.527L154.452 377.937L155.512 378.347L156.557 378.775C162.129 381.054 167.411 383.645 172.655 385.879C177.896 388.117 183.096 389.994 188.367 390.872C188.698 390.928 189.025 391.003 189.356 391.047L190.36 391.181C191.03 391.267 191.692 391.379 192.373 391.423L194.403 391.606L196.457 391.714C199.205 391.818 201.987 391.792 204.807 391.677C207.63 391.55 210.483 391.349 213.369 391.122C216.259 390.891 219.19 390.645 222.158 390.437L224.394 390.288L226.651 390.169C227.403 390.124 228.165 390.105 228.928 390.079L230.07 390.042C230.449 390.027 230.847 390.027 231.234 390.023C234.351 389.986 237.483 390.109 240.629 390.422C242.203 390.586 243.78 390.783 245.357 391.047C246.934 391.316 248.511 391.628 250.088 392.012C250.136 392.023 250.185 392.038 250.233 392.049C247.213 388.571 244.085 385.25 240.748 382.226C237.297 379.099 233.626 376.284 229.679 374.031C225.736 371.771 221.541 370.08 217.133 369.105C216.017 368.889 214.913 368.636 213.771 368.491L212.919 368.364L212.495 368.301L212.064 368.256L210.338 368.077C208.024 367.887 205.681 367.776 203.304 367.794C202.121 367.779 200.92 367.824 199.726 367.843C198.525 367.887 197.323 367.921 196.114 367.984C193.7 368.096 191.253 368.249 188.798 368.383C187.563 368.446 186.336 368.52 185.093 368.569L183.23 368.651L181.355 368.707C180.734 368.729 180.106 368.736 179.477 368.74C178.848 368.74 178.224 368.755 177.595 368.751L173.82 368.666C168.791 368.457 163.796 367.91 158.864 367.072C151.477 365.832 144.257 363.888 137.235 361.453C134.036 360.973 130.848 360.511 127.664 360.191C123.911 359.815 120.151 359.61 116.42 359.8C114.553 359.893 112.701 360.068 110.852 360.37C109.004 360.664 107.155 361.055 105.31 361.483C101.613 362.343 97.9047 363.375 94.1033 364.123C93.6273 364.216 93.1512 364.309 92.6751 364.391L91.9572 364.514L91.2356 364.614C90.2723 364.741 89.3164 364.909 88.3456 364.972C87.3785 365.058 86.4151 365.162 85.4444 365.184L83.9938 365.244C83.752 365.259 83.5102 365.255 83.2684 365.255H82.5431C78.6711 365.244 74.8103 364.853 71.0276 364.101C63.4658 362.596 56.2091 359.64 49.845 355.376C56.3765 359.383 63.6853 362.019 71.1875 363.199C74.9405 363.792 78.7418 364.022 82.5208 363.877L83.2313 363.855C83.4693 363.847 83.7036 363.84 83.938 363.818L85.3514 363.702C86.2961 363.646 87.2297 363.505 88.1633 363.386C89.1006 363.285 90.0268 363.084 90.9529 362.928L91.6485 362.805L92.3403 362.656C92.8015 362.559 93.2627 362.451 93.7202 362.343C97.3988 361.468 101.033 360.299 104.752 359.275C106.612 358.761 108.498 358.285 110.413 357.901C112.333 357.51 114.285 357.249 116.234 357.071C119.348 356.788 122.465 356.773 125.563 356.892L123.361 355.931L119.995 354.364C118.875 353.839 117.774 353.273 116.666 352.733C112.247 350.514 107.921 348.134 103.677 345.632C99.4297 343.134 95.275 340.49 91.1798 337.764C87.0847 335.039 83.0564 332.228 79.0729 329.357C71.1094 323.608 63.3319 317.632 55.5545 311.655C63.5774 317.296 71.6041 322.934 79.7833 328.322C87.9699 333.698 96.2978 338.848 104.905 343.443C109.208 345.74 113.575 347.903 118.009 349.899C119.121 350.387 120.225 350.893 121.349 351.363L124.711 352.759L128.107 354.073C128.669 354.297 129.245 354.494 129.814 354.699L131.525 355.309C140.668 358.508 150.074 360.924 159.607 362.112C164.368 362.715 169.155 363.032 173.928 363.024C178.692 363.028 183.464 362.604 188.318 362.135C189.389 362.03 190.461 361.922 191.532 361.814C187.191 359.625 183.245 356.691 179.946 353.157C176.955 349.944 174.549 346.5 171.614 343.744C170.152 342.378 168.549 341.171 166.808 340.121C165.068 339.071 163.219 338.163 161.318 337.332C157.513 335.664 153.511 334.298 149.583 332.626C145.648 330.965 141.873 328.839 138.466 326.274C131.633 321.15 126.113 314.359 122.591 306.677C126.47 314.184 132.258 320.618 139.158 325.298C140.891 326.46 142.669 327.547 144.532 328.471C144.763 328.59 144.994 328.713 145.224 328.828L145.931 329.156C146.403 329.368 146.868 329.603 147.348 329.8C147.828 329.997 148.304 330.202 148.787 330.396L150.245 330.958C154.158 332.414 158.213 333.587 162.219 335.117C164.22 335.884 166.213 336.744 168.14 337.783L169.568 338.602C170.037 338.893 170.494 339.198 170.959 339.496C171.867 340.129 172.767 340.788 173.604 341.514C176.97 344.407 179.592 347.822 182.505 350.644C188.251 356.248 195.813 359.886 203.639 360.883C206.005 360.783 208.4 360.79 210.81 360.883L212.748 360.999L213.231 361.029L213.719 361.081L214.693 361.181C215.991 361.289 217.289 361.524 218.591 361.725C218.919 361.77 219.238 361.852 219.562 361.915L220.533 362.123L221.504 362.332C221.827 362.399 222.147 362.496 222.467 362.578L223.43 362.831C223.75 362.92 224.066 363.021 224.383 363.118L225.335 363.408L226.276 363.732C228.783 364.6 231.212 365.657 233.551 366.867C238.234 369.284 242.519 372.303 246.476 375.588C250.434 378.879 254.075 382.45 257.523 386.118C258.673 387.339 259.8 388.575 260.912 389.815C260.718 388.404 260.473 386.996 260.168 385.6C258.926 379.858 256.817 374.269 253.919 369.12C252.468 366.547 250.839 364.067 249.009 361.747L248.321 360.876L247.607 360.027C247.142 359.454 246.633 358.917 246.145 358.363C245.137 357.283 244.107 356.222 243.017 355.228C238.695 351.217 233.629 347.877 228.225 344.988C222.817 342.091 217.074 339.608 211.249 337.12C205.424 334.633 199.495 332.142 193.7 329.178C187.917 326.222 182.248 322.763 177.197 318.436C174.683 316.261 172.347 313.912 170.178 311.436L169.375 310.501C169.107 310.188 168.836 309.879 168.583 309.555L167.05 307.63L166.79 307.28C165.547 305.996 164.212 304.793 162.788 303.68C161.266 302.529 159.652 301.479 157.975 300.518C156.286 299.576 154.527 298.735 152.73 297.964C150.922 297.212 149.07 296.542 147.192 295.931C139.656 293.515 131.663 292.342 123.688 290.86C121.691 290.487 119.697 290.096 117.704 289.668C115.714 289.233 113.727 288.756 111.756 288.22C109.788 287.669 107.836 287.062 105.909 286.365C103.99 285.647 102.104 284.854 100.267 283.956C98.4366 283.04 96.6512 282.039 94.9402 280.925C93.2404 279.79 91.6039 278.561 90.0789 277.209C88.5687 275.835 87.159 274.357 85.8981 272.764C84.6595 271.148 83.5735 269.427 82.6585 267.621C83.6627 269.383 84.8269 271.036 86.1287 272.574C87.4566 274.089 88.9184 275.478 90.4657 276.751C92.0316 278.01 93.6942 279.134 95.4126 280.162C97.1422 281.171 98.9387 282.061 100.769 282.869C102.61 283.655 104.488 284.34 106.393 284.947C108.304 285.531 110.242 286.034 112.195 286.473C114.151 286.902 116.123 287.274 118.102 287.605C120.084 287.929 122.074 288.22 124.071 288.488C128.066 289.024 132.087 289.497 136.119 290.089C138.135 290.391 140.151 290.722 142.17 291.105C144.186 291.504 146.199 291.954 148.2 292.476C150.197 293.016 152.187 293.623 154.151 294.33C156.089 295.049 158.008 295.853 159.883 296.776C159.611 296.303 159.336 295.834 159.072 295.361C157.499 292.535 156.029 289.668 154.634 286.775C151.841 280.985 149.409 275.083 146.857 269.308C145.578 266.423 144.265 263.563 142.855 260.763C142.494 260.067 142.156 259.359 141.78 258.674L140.664 256.611L139.496 254.586C139.102 253.912 138.682 253.26 138.272 252.597C136.606 249.972 134.78 247.459 132.76 245.113C130.748 242.76 128.516 240.623 126.084 238.679C121.241 234.766 115.758 231.582 110.354 228.231C107.653 226.548 104.949 224.839 102.368 222.943C101.71 222.489 101.081 221.994 100.441 221.51C99.8053 221.022 99.1619 220.549 98.5481 220.035L96.6921 218.52L94.8844 216.949C85.3142 208.485 77.4214 198.179 71.8124 186.781C77.7933 197.989 85.98 207.953 95.699 215.995L97.5327 217.489L99.4111 218.922C100.032 219.41 100.683 219.853 101.323 220.311C101.966 220.765 102.602 221.231 103.264 221.655C105.861 223.431 108.58 225.029 111.321 226.611C114.062 228.19 116.841 229.735 119.586 231.373C122.331 233.004 125.038 234.747 127.627 236.694C130.22 238.63 132.667 240.824 134.862 243.225C136.297 244.782 137.64 246.416 138.908 248.107C139.042 246.93 139.277 245.78 139.604 244.663C140.028 243.214 140.567 241.814 141.211 240.474C141.854 239.133 142.565 237.852 143.312 236.609C144.804 234.114 146.411 231.749 147.794 229.292C148.49 228.063 149.122 226.816 149.647 225.524C149.918 224.88 150.145 224.224 150.365 223.565C150.565 222.902 150.759 222.232 150.889 221.555C151.179 220.203 151.306 218.818 151.227 217.448C151.168 216.07 150.848 214.733 150.383 213.404C149.922 212.075 149.338 210.768 148.828 209.409C148.579 208.727 148.33 208.038 148.155 207.327C147.954 206.623 147.82 205.905 147.698 205.186C147.251 202.297 147.441 199.374 147.884 196.537C148.337 193.692 149.063 190.91 149.803 188.144C149.174 190.94 148.561 193.748 148.222 196.585C147.895 199.418 147.828 202.297 148.371 205.071C148.516 205.76 148.672 206.448 148.892 207.115C149.085 207.789 149.349 208.44 149.621 209.096C150.171 210.403 150.807 211.691 151.343 213.05C151.882 214.406 152.299 215.869 152.421 217.358C152.563 218.848 152.485 220.348 152.232 221.812C152.116 222.545 151.942 223.264 151.756 223.982C151.551 224.693 151.335 225.401 151.079 226.09C150.577 227.475 149.963 228.815 149.297 230.111C147.969 232.706 146.444 235.153 145.09 237.636C144.41 238.876 143.777 240.131 143.23 241.401C142.684 242.67 142.241 243.974 141.91 245.292C141.579 246.61 141.401 247.947 141.374 249.265C141.363 250.188 141.449 251.1 141.624 251.983C141.828 252.288 142.029 252.594 142.223 252.903L143.502 254.962L144.722 257.051C145.131 257.747 145.503 258.458 145.897 259.162C147.437 261.988 148.873 264.855 150.26 267.729C153.031 273.486 155.631 279.25 158.547 284.809C160.002 287.591 161.523 290.327 163.126 292.997C164.737 295.667 166.451 298.255 168.274 300.749L168.962 301.68L169.304 302.146L169.661 302.6L171.097 304.409L172.589 306.163C172.83 306.461 173.094 306.737 173.355 307.02L174.132 307.865C175.319 309.135 176.55 310.352 177.822 311.521C177.64 308.781 177.822 306.052 178.268 303.4C179.198 297.934 181.184 292.788 183.732 288.03C186.276 283.286 189.285 278.904 192.25 274.577C195.218 270.254 198.164 265.957 200.615 261.414C201.831 259.147 202.906 256.812 203.691 254.392C204.476 251.975 204.963 249.473 204.989 246.952C205.015 244.432 204.595 241.892 203.907 239.412C203.222 236.929 202.289 234.494 201.296 232.073C200.299 229.657 199.257 227.237 198.309 224.779C197.353 222.325 196.468 219.849 195.638 217.351C193.983 212.358 192.592 207.282 191.454 202.159C192.785 207.238 194.366 212.246 196.204 217.153C197.122 219.607 198.097 222.039 199.138 224.44C200.172 226.846 201.299 229.203 202.393 231.601C203.483 233.998 204.528 236.437 205.339 238.988C206.15 241.535 206.708 244.205 206.782 246.938C206.86 249.671 206.429 252.4 205.696 255.003C204.959 257.613 203.922 260.108 202.746 262.505C198.022 272.097 191.413 280.445 186.923 289.668C185.804 291.962 184.841 294.308 184.071 296.709C183.301 299.111 182.724 301.557 182.408 304.019C182.088 306.476 182.032 308.945 182.304 311.35C182.482 312.929 182.806 314.478 183.278 315.967C187.362 318.901 191.826 321.366 196.464 323.548C202.066 326.184 207.924 328.43 213.845 330.731C219.767 333.032 225.774 335.389 231.662 338.293C236.207 340.535 240.681 343.134 244.858 346.261C244.263 343.782 243.91 341.25 243.806 338.71C243.702 335.702 243.943 332.689 244.539 329.744C245.126 326.802 246.116 323.921 247.336 321.258C249.753 315.911 252.844 311.127 254.905 306.025C255.931 303.486 256.686 300.865 256.876 298.206C257.081 295.551 256.686 292.882 255.794 290.324C254.894 287.766 253.555 285.338 251.996 283.04C250.43 280.743 248.634 278.587 246.778 276.439C244.925 274.29 243.025 272.142 241.284 269.844C240.853 269.267 240.425 268.683 240.019 268.087C239.603 267.495 239.235 266.873 238.851 266.259L238.282 265.335L237.765 264.386C237.423 263.753 237.066 263.127 236.765 262.472L236.296 261.5C236.14 261.176 235.984 260.852 235.846 260.521C235.567 259.858 235.277 259.203 235.005 258.54L234.239 256.533C233.99 255.863 233.767 255.181 233.533 254.507C232.621 251.797 231.833 249.056 231.078 246.308C229.575 240.816 228.176 235.302 226.172 229.973C228.362 235.231 229.962 240.716 231.65 246.141C232.498 248.855 233.38 251.555 234.373 254.206C234.63 254.865 234.875 255.528 235.143 256.183L235.969 258.134L236.861 260.052C237.007 260.372 237.17 260.685 237.334 260.994L237.825 261.928C238.137 262.558 238.509 263.157 238.863 263.76L239.398 264.665L239.982 265.536C240.376 266.113 240.748 266.706 241.172 267.264C241.585 267.826 242.02 268.377 242.459 268.925C244.23 271.103 246.175 273.155 248.113 275.243C250.051 277.332 251.981 279.484 253.703 281.83C255.418 284.18 256.947 286.715 258.037 289.497C258.58 290.886 258.993 292.338 259.257 293.831C259.521 295.324 259.625 296.847 259.562 298.359C259.454 301.393 258.702 304.339 257.698 307.098C256.69 309.868 255.437 312.486 254.183 315.051C252.93 317.617 251.676 320.134 250.631 322.684C249.575 325.235 248.801 327.8 248.362 330.455C247.923 333.106 247.801 335.806 247.986 338.483C248.37 343.554 249.872 348.525 252.383 352.867C252.893 353.403 253.413 353.928 253.901 354.487L254.749 355.436L255.571 356.408C257.758 359.003 259.722 361.785 261.485 364.685C264.836 370.215 267.391 376.232 269.065 382.509C269.188 380.756 269.381 379.017 269.627 377.297C270.315 372.635 271.438 368.111 272.814 363.706C272.978 363.151 273.164 362.607 273.35 362.064L273.9 360.429C274.291 359.361 274.666 358.281 275.072 357.22C275.477 356.162 275.879 355.097 276.303 354.058L276.935 352.491L277.579 350.934C279.301 346.79 281.109 342.75 282.838 338.729C284.575 334.711 286.234 330.716 287.677 326.687C288.414 324.676 289.057 322.655 289.675 320.625C290.21 318.585 290.817 316.555 291.226 314.478C291.482 313.417 291.683 312.348 291.873 311.276C291.75 309.79 291.557 308.319 291.274 306.878C290.902 305.054 290.4 303.266 289.701 301.568C289.001 299.874 288.112 298.251 287.049 296.706C284.94 293.604 282.239 290.822 279.379 288.171C276.508 285.513 273.495 282.962 270.497 280.36C268.998 279.06 267.506 277.738 266.041 276.39C264.572 275.042 263.132 273.654 261.745 272.213C260.358 270.768 259.007 269.29 257.754 267.722C256.497 266.158 255.325 264.52 254.261 262.822C252.171 259.404 250.475 255.721 249.53 251.83C248.541 247.958 248.392 243.877 249.177 239.993C248.589 243.914 248.946 247.928 250.107 251.674C251.222 255.438 253.064 258.946 255.262 262.167C256.381 263.768 257.594 265.298 258.892 266.754C260.186 268.217 261.578 269.595 263.002 270.935C264.427 272.276 265.907 273.56 267.421 274.815C268.931 276.07 270.467 277.299 272.022 278.516C275.128 280.952 278.282 283.361 281.354 285.93C284.423 288.503 287.436 291.28 289.961 294.609C291.207 296.24 292.312 298.02 293.212 299.912C294.134 283.636 290.82 267.048 283.43 252.415C281.503 248.591 279.353 244.852 277.013 241.189C274.685 237.517 272.238 233.898 269.734 230.275C267.235 226.652 264.706 223.014 262.236 219.313C259.774 215.604 257.389 211.807 255.176 207.893C252.349 202.915 249.913 197.646 247.99 192.214C247.09 190.791 246.097 189.417 245.022 188.107C243.047 185.72 240.823 183.516 238.439 181.471C233.655 177.387 228.295 173.913 222.843 170.558C220.116 168.875 217.353 167.233 214.611 165.501C211.874 163.774 209.177 161.964 206.562 160.032C203.951 158.095 201.422 156.029 199.053 153.772C196.695 151.508 194.485 149.07 192.588 146.381C190.695 143.697 189.088 140.789 187.954 137.691C187.388 136.145 186.935 134.555 186.596 132.947C186.258 131.342 186.023 129.722 185.856 128.106C185.525 124.871 185.417 121.65 185.194 118.455C185.079 116.858 184.93 115.268 184.707 113.693C184.677 113.495 184.655 113.298 184.621 113.101L184.513 112.512L184.298 111.336C184.175 110.55 183.963 109.779 183.784 109.001C182.263 102.802 179.574 96.9111 176.356 91.3668C173.135 85.8114 169.431 80.539 165.704 75.3C169.553 80.4496 173.384 85.6327 176.747 91.136C178.432 93.8839 179.983 96.7212 181.329 99.6627C182.676 102.601 183.818 105.643 184.666 108.778C184.87 109.563 185.101 110.342 185.246 111.142L185.491 112.337L185.614 112.933C185.651 113.134 185.681 113.335 185.715 113.533C185.982 115.138 186.172 116.75 186.325 118.358C186.63 121.575 186.808 124.789 187.21 127.946C187.411 129.525 187.675 131.089 188.036 132.623C188.396 134.157 188.865 135.658 189.438 137.117C190.587 140.04 192.183 142.777 194.054 145.301C195.928 147.83 198.112 150.127 200.444 152.264C202.783 154.394 205.29 156.345 207.887 158.177C210.486 160.005 213.176 161.718 215.917 163.357C218.651 164.995 221.455 166.574 224.241 168.205C229.806 171.455 235.37 174.862 240.477 179.018C242.18 180.41 243.828 181.896 245.387 183.478C245.331 183.24 245.268 183.002 245.212 182.767C244.126 178.385 243.438 173.928 242.928 169.467C242.816 168.35 242.69 167.233 242.597 166.116L242.381 162.761L242.329 161.923C242.314 161.644 242.311 161.365 242.303 161.085L242.255 159.406L242.206 157.727C242.18 157.168 242.206 156.61 242.199 156.047C242.165 147.1 242.987 138.197 244.345 129.41C245.703 120.611 247.682 111.995 249.273 103.349C250.069 99.026 250.776 94.6956 251.26 90.3466C251.743 85.9976 252 81.6299 251.911 77.266L251.851 75.6314L251.821 74.8122C251.814 74.5404 251.803 74.2686 251.777 73.9968L251.661 72.3659C251.628 71.8223 251.557 71.2786 251.505 70.735C251.408 69.6478 251.252 68.5642 251.115 67.4807L250.869 65.8573L250.743 65.0456L250.598 64.2375C250.233 62.0779 249.768 59.9332 249.288 57.7922C248.79 55.6549 248.247 53.5251 247.67 51.4027C245.353 42.9132 242.504 34.5465 240.116 26.0384C239.528 23.9085 238.948 21.775 238.435 19.6266C238.301 19.0904 238.174 18.5542 238.055 18.0143L237.691 16.3983C237.468 15.3148 237.23 14.2387 237.036 13.1477C236.207 8.8061 235.671 4.40866 235.489 6.10352e-05C235.775 4.40494 236.415 8.77628 237.345 13.0844C237.564 14.1642 237.829 15.2328 238.074 16.3089L238.476 17.91C238.61 18.4462 238.747 18.9786 238.892 19.5074C239.454 21.6372 240.083 23.7484 240.719 25.8596C243.3 34.2896 246.342 42.5743 248.875 51.0564C249.508 53.1788 250.107 55.3124 250.657 57.4571C251.196 59.6093 251.717 61.7652 252.137 63.9508L252.301 64.7663L252.446 65.5892L252.736 67.2312C252.9 68.3334 253.086 69.4318 253.212 70.5377C253.276 71.0925 253.361 71.6436 253.41 72.1984L253.569 73.8627C253.599 74.142 253.618 74.4175 253.633 74.6968L253.685 75.5309L253.785 77.2027C253.982 81.6635 253.822 86.1279 253.436 90.5626C253.049 94.9972 252.439 99.3984 251.739 103.773C250.497 111.548 248.961 119.241 247.841 126.948C248.225 126.438 248.623 125.939 249.028 125.455C250.363 123.906 251.803 122.462 253.354 121.17L254.522 120.209C254.916 119.892 255.292 119.557 255.704 119.271L256.921 118.381L257.527 117.938L257.832 117.714L258.144 117.506C261.455 115.246 264.947 113.317 268.474 111.518C272.003 109.72 275.57 108.044 279.082 106.279C282.593 104.514 286.052 102.66 289.325 100.519L289.942 100.124C290.147 99.9904 290.344 99.8452 290.541 99.7037L291.739 98.8547C292.554 98.3111 293.294 97.6707 294.064 97.0712C295.596 95.8573 297.036 94.5281 298.389 93.1131C299.743 91.6982 301.015 90.2051 302.194 88.6375C303.37 87.0662 304.445 85.4204 305.427 83.7188C305.925 82.8699 306.375 81.9986 306.825 81.1235L307.458 79.7905C307.67 79.3474 307.852 78.8894 308.049 78.4389C308.811 76.6256 309.47 74.7638 310.017 72.8686C309.526 74.7787 308.923 76.6628 308.209 78.5022C308.023 78.9602 307.852 79.4256 307.655 79.8762L307.056 81.2315C306.628 82.1214 306.204 83.0151 305.724 83.8826C304.783 85.6252 303.749 87.3157 302.607 88.9354C301.458 90.5514 300.216 92.1041 298.888 93.5749C297.56 95.0494 296.132 96.4457 294.61 97.7228C293.844 98.3558 293.108 99.0298 292.301 99.6069L291.11 100.504C290.91 100.653 290.716 100.806 290.512 100.947L289.898 101.364C286.636 103.636 283.192 105.613 279.71 107.49C276.229 109.366 272.71 111.146 269.266 113.026C265.825 114.907 262.455 116.899 259.32 119.181L259.022 119.39L258.736 119.613L258.163 120.056L257.017 120.946C256.627 121.233 256.277 121.568 255.909 121.881L254.819 122.83C253.376 124.104 252.067 125.504 250.869 126.974C249.694 128.46 248.634 130.035 247.823 131.711C247.503 132.355 247.22 133.014 246.975 133.68C246.149 141.101 245.744 148.556 245.948 155.98C245.967 156.524 245.956 157.068 245.993 157.611L246.078 159.238L246.164 160.866C246.179 161.137 246.19 161.409 246.209 161.681L246.279 162.493L246.566 165.736C246.685 166.816 246.833 167.888 246.964 168.964C247.555 173.254 248.318 177.524 249.456 181.684C250.575 185.846 251.899 189.953 253.625 193.885C253.834 194.381 254.034 194.88 254.25 195.367L254.942 196.823L255.634 198.279C255.749 198.521 255.861 198.767 255.983 199.005L256.363 199.72L257.877 202.572L259.502 205.376C261.719 209.092 264.114 212.719 266.617 216.301C269.132 219.879 271.724 223.428 274.321 227.006C276.92 230.58 279.502 234.211 281.99 237.934C284.49 241.646 286.84 245.511 288.979 249.518L289.775 251.026C289.905 251.279 290.043 251.525 290.169 251.782L290.538 252.556L292.003 255.65C292.461 256.697 292.888 257.754 293.331 258.804L293.662 259.594L293.826 259.988L293.974 260.391L294.562 261.999L295.15 263.608C295.246 263.876 295.351 264.144 295.436 264.416L295.693 265.231L296.716 268.5C297.021 269.599 297.303 270.705 297.597 271.81L297.817 272.637L297.924 273.05L298.014 273.467L298.378 275.143C298.906 277.366 299.245 279.626 299.635 281.879C299.914 284.146 300.253 286.41 300.391 288.693C300.617 290.971 300.647 293.261 300.736 295.548C300.707 297.838 300.74 300.127 300.573 302.417C300.543 303.289 300.484 304.16 300.409 305.028C301.346 303.944 302.321 302.901 303.314 301.896C305.739 299.45 308.283 297.205 310.813 295C312.081 293.898 313.334 292.807 314.569 291.705C315.808 290.603 317.024 289.482 318.229 288.346C319.423 287.203 320.61 286.056 321.755 284.872C322.336 284.288 322.89 283.681 323.459 283.085C324.009 282.474 324.575 281.875 325.11 281.253C326.204 280.024 327.234 278.751 328.25 277.463C328.741 276.807 329.25 276.163 329.715 275.493C329.953 275.158 330.195 274.83 330.426 274.491L331.11 273.475C331.344 273.14 331.556 272.79 331.776 272.447C331.991 272.101 332.218 271.758 332.427 271.408C332.839 270.705 333.267 270.008 333.643 269.286C334.439 267.86 335.134 266.385 335.793 264.892C337.069 261.895 338.084 258.778 338.69 255.58C339.326 252.389 339.523 249.12 339.315 245.876L339.196 244.666L339.137 244.059L339.044 243.456L338.854 242.25L338.605 241.051L338.482 240.451L338.329 239.855L338.028 238.664L337.679 237.484L337.504 236.892L337.307 236.303L336.916 235.13L336.488 233.965L336.276 233.38L336.049 232.8L335.596 231.641C334.967 230.104 334.316 228.57 333.643 227.036C332.304 223.975 330.931 220.899 329.741 217.742C324.954 205.089 324.322 190.985 327.881 178.064C324.705 191.085 325.787 205.034 330.853 217.302C332.122 220.378 333.568 223.383 335.004 226.414C335.726 227.925 336.425 229.456 337.109 230.997L337.608 232.163L337.857 232.747L338.091 233.336L338.564 234.516L339.003 235.711L339.222 236.311L339.423 236.918L339.821 238.132L340.174 239.364L340.349 239.982L340.498 240.608L340.795 241.859L341.034 243.128L341.149 243.765L341.234 244.406C341.29 244.834 341.35 245.262 341.402 245.69C341.729 249.123 341.621 252.601 341.048 255.997C339.947 262.807 337.247 269.278 333.628 275.095L332.94 276.182C332.709 276.543 332.464 276.893 332.226 277.25C331.757 277.969 331.248 278.654 330.757 279.354C329.741 280.728 328.703 282.087 327.61 283.394C327.074 284.061 326.509 284.694 325.958 285.345C325.389 285.978 324.835 286.622 324.255 287.244C323.109 288.503 321.926 289.717 320.736 290.927C319.539 292.126 318.33 293.31 317.099 294.468C315.871 295.63 314.632 296.773 313.409 297.905C310.958 300.172 308.547 302.432 306.327 304.812C305.218 306.003 304.155 307.217 303.169 308.476C302.187 309.734 301.28 311.034 300.472 312.374C299.97 313.223 299.513 314.087 299.104 314.966C299.033 315.338 298.962 315.707 298.884 316.075C298.49 318.339 297.891 320.562 297.355 322.8C296.742 325.011 296.095 327.208 295.365 329.361C293.93 333.68 292.301 337.876 290.634 341.998C288.972 346.124 287.272 350.182 285.702 354.226L285.115 355.741L284.545 357.257C284.162 358.266 283.805 359.279 283.448 360.288C283.087 361.297 282.764 362.31 282.418 363.322L281.949 364.834C281.793 365.337 281.633 365.839 281.495 366.35C280.339 370.397 279.427 374.485 278.925 378.574C278.438 382.658 278.326 386.736 278.736 390.686C279.011 393.106 279.483 395.471 280.164 397.753L281.168 397.739C281.336 397.221 281.507 396.707 281.681 396.193L282.712 393.509C282.887 393.062 283.05 392.611 283.236 392.172L283.816 390.858C284.207 389.982 284.579 389.1 284.988 388.236L286.275 385.671L286.599 385.03C286.703 384.814 286.811 384.602 286.933 384.397L287.636 383.146C289.459 379.784 291.598 376.611 293.829 373.525C294.997 372.017 296.128 370.483 297.389 369.053L298.315 367.966L298.776 367.422C298.932 367.239 299.1 367.072 299.26 366.897L301.209 364.808L301.696 364.287C301.863 364.115 302.035 363.952 302.206 363.788L303.229 362.794L304.251 361.799L304.765 361.304L305.3 360.831L307.443 358.944C307.621 358.787 307.796 358.627 307.982 358.474L308.54 358.028L309.656 357.138L310.772 356.248C310.958 356.103 311.14 355.946 311.333 355.808L311.914 355.391L314.231 353.723C314.61 353.437 315.016 353.187 315.414 352.926L316.611 352.152C317.411 351.638 318.203 351.109 319.022 350.636C322.265 348.704 325.512 347.017 328.614 345.301C330.768 344.109 332.851 342.899 334.815 341.6L334.77 341.585C335.577 339.045 335.904 336.312 335.927 333.508C335.949 330.701 335.681 327.826 335.361 324.907C335.041 321.984 334.662 319.013 334.472 315.971C334.379 314.452 334.331 312.914 334.372 311.365C334.413 309.82 334.528 308.252 334.796 306.711C335.268 303.624 336.165 300.626 337.355 297.793C338.545 294.956 340.022 292.271 341.662 289.724C344.95 284.627 348.856 280.062 352.835 275.657C356.808 271.259 360.81 266.929 364.325 262.241C366.081 259.899 367.713 257.468 369.123 254.913C370.533 252.359 371.716 249.682 372.567 246.897C373.43 244.111 373.925 241.218 374.126 238.292C374.33 235.365 374.245 232.416 373.97 229.482C373.415 223.606 372.129 217.805 370.819 212.034C372.322 217.757 373.806 223.509 374.565 229.415C374.94 232.364 375.13 235.35 375.022 238.34C374.914 241.326 374.509 244.324 373.717 247.228C372.936 250.132 371.805 252.94 370.444 255.617C369.082 258.294 367.49 260.845 365.779 263.299C362.35 268.206 358.445 272.719 354.636 277.236C350.834 281.737 347.174 286.339 344.203 291.31C342.722 293.79 341.42 296.363 340.409 299.022C339.397 301.68 338.679 304.424 338.352 307.206C337.98 309.972 338.084 312.806 338.352 315.669C338.627 318.533 339.092 321.426 339.52 324.378C339.944 327.331 340.338 330.351 340.42 333.471C340.453 334.756 340.427 336.063 340.327 337.377C341.874 335.996 343.351 334.503 344.772 332.931C347.078 330.373 349.235 327.61 351.337 324.747C355.525 318.991 359.475 313.037 363.142 306.908C366.813 300.779 370.224 294.486 373.386 288.056C376.544 281.626 379.426 275.057 382.093 268.392C384.756 261.727 387.189 254.962 389.406 248.122L390.224 245.552C390.495 244.696 390.778 243.84 391.027 242.98L392.575 237.808C393.575 234.348 394.531 230.867 395.487 227.378C396.986 221.901 398.489 216.401 400.162 210.939C400.293 209.472 400.419 208.005 400.531 206.542C400.735 203.872 400.891 201.206 400.955 198.54C401.022 195.874 401.003 193.211 400.854 190.56C400.694 187.909 400.397 185.273 399.932 182.667C399.05 177.439 397.217 172.438 394.884 167.646C392.53 162.861 389.744 158.27 387.01 153.631C385.649 151.307 384.299 148.969 383.034 146.582C382.413 145.38 381.788 144.181 381.219 142.956L380.784 142.04L380.382 141.109L379.575 139.243C377.54 134.224 376.067 128.993 375.126 123.672C374.226 118.343 373.892 112.93 374.096 107.545C374.349 102.161 375.164 96.8068 376.536 91.6051C375.264 96.8329 374.557 102.191 374.412 107.557C374.308 112.926 374.751 118.299 375.744 123.56C376.778 128.818 378.336 133.967 380.442 138.878L381.271 140.703L381.688 141.615L382.134 142.513C382.722 143.712 383.361 144.888 383.997 146.065C385.296 148.403 386.683 150.7 388.085 152.99C390.897 157.563 393.795 162.124 396.283 166.95C397.514 169.37 398.637 171.857 399.575 174.423L399.917 175.391C400.032 175.715 400.151 176.035 400.244 176.363L400.839 178.329L401.345 180.317C401.434 180.648 401.505 180.984 401.572 181.319L401.78 182.324C402.316 185.005 402.669 187.716 402.889 190.43C403.093 193.148 403.164 195.866 403.153 198.581C403.149 199.75 403.123 200.915 403.086 202.081C405.02 196.656 407.226 191.312 409.885 186.182C411.544 182.912 413.445 179.773 415.45 176.724L416.208 175.585L416.588 175.015L416.982 174.456L418.563 172.222C419.656 170.763 420.735 169.296 421.877 167.877C426.389 162.158 431.317 156.814 436.364 151.616C441.427 146.43 446.608 141.381 451.752 136.294L467.203 121.05L452.198 136.737C447.203 141.973 442.167 147.171 437.276 152.484C432.396 157.805 427.657 163.256 423.368 169.027C422.282 170.461 421.259 171.935 420.225 173.403L418.738 175.644L418.366 176.203L418.009 176.772L417.298 177.912C415.42 180.961 413.653 184.074 412.128 187.31C409.022 193.751 406.623 200.521 404.577 207.402C402.535 214.29 400.843 221.298 399.132 228.335C398.277 231.854 397.417 235.376 396.506 238.902L395.093 244.175C394.862 245.057 394.602 245.928 394.353 246.804L393.597 249.429C391.552 256.421 389.283 263.354 386.772 270.206C384.258 277.057 381.513 283.83 378.481 290.487C376.257 295.361 373.892 300.176 371.373 304.916C371.831 304.573 372.288 304.234 372.75 303.903C377.198 300.716 381.922 297.871 387.003 295.711C389.543 294.647 392.169 293.738 394.855 293.105C397.533 292.457 400.241 292.018 402.948 291.705C405.656 291.385 408.36 291.202 411.049 291.042C413.742 290.882 416.424 290.748 419.095 290.558C421.765 290.372 424.421 290.115 427.051 289.717L428.036 289.568C428.364 289.512 428.691 289.449 429.015 289.389C429.665 289.262 430.324 289.158 430.967 289.005L431.938 288.789L432.901 288.544C433.549 288.387 434.181 288.194 434.821 288.011C437.369 287.263 439.857 286.295 442.275 285.181C444.692 284.068 447.028 282.765 449.267 281.309C451.506 279.857 453.653 278.248 455.665 276.491C457.681 274.733 459.589 272.846 461.337 270.813C463.085 268.783 464.707 266.635 466.146 264.363C467.582 262.096 468.858 259.717 469.944 257.255C468.929 259.75 467.72 262.167 466.34 264.486C464.96 266.806 463.39 269.01 461.687 271.107C459.983 273.207 458.109 275.165 456.122 277.001C454.132 278.84 452.009 280.531 449.777 282.069C447.545 283.61 445.206 285.003 442.773 286.209C440.34 287.416 437.826 288.477 435.234 289.318C434.586 289.523 433.939 289.739 433.281 289.918L432.299 290.197L431.306 290.446C430.647 290.625 429.978 290.748 429.312 290.897C428.977 290.968 428.646 291.042 428.312 291.109L427.307 291.288C424.629 291.768 421.936 292.111 419.247 292.371C416.558 292.636 413.873 292.848 411.198 293.083C408.524 293.317 405.864 293.574 403.238 293.961C400.612 294.345 398.013 294.844 395.48 295.529C392.943 296.203 390.492 297.13 388.1 298.21C383.328 300.396 378.85 303.263 374.647 306.461C371.656 308.74 368.84 311.235 366.319 313.968C363.373 319.002 360.248 323.935 356.942 328.761C354.848 331.792 352.638 334.808 350.18 337.697C347.725 340.583 345.006 343.346 341.952 345.785C338.902 348.224 335.67 350.246 332.501 352.122C329.328 353.999 326.204 355.741 323.284 357.599C322.548 358.054 321.852 358.553 321.145 359.037L320.085 359.766C319.732 360.008 319.375 360.247 319.04 360.515L316.998 362.079L316.489 362.47C316.317 362.6 316.161 362.745 315.994 362.879L315.012 363.71L314.03 364.54L313.539 364.953C313.379 365.095 313.227 365.244 313.067 365.389L311.188 367.146L310.72 367.586L310.273 368.047L309.377 368.971L308.48 369.894C308.332 370.047 308.179 370.2 308.034 370.356L307.61 370.84L305.91 372.769C305.769 372.929 305.624 373.085 305.49 373.253L305.088 373.756L304.285 374.761C303.188 376.075 302.213 377.49 301.205 378.868C299.286 381.701 297.448 384.591 295.912 387.644L295.317 388.776C295.213 388.962 295.124 389.156 295.034 389.35L294.767 389.93L293.688 392.25C293.346 393.032 293.041 393.825 292.713 394.615L292.23 395.795C292.074 396.19 291.944 396.595 291.798 396.998L291.787 397.031C298.122 390.541 304.627 384.118 311.586 378.101C313.684 376.295 315.808 374.515 317.991 372.795C320.178 371.078 322.395 369.395 324.679 367.794C326.966 366.197 329.291 364.64 331.686 363.185C334.085 361.732 336.525 360.347 339.032 359.07C341.543 357.804 344.102 356.624 346.717 355.563C349.339 354.52 352.002 353.585 354.71 352.781C357.425 351.999 360.178 351.344 362.949 350.823C365.716 350.324 368.48 349.951 371.232 349.653C376.737 349.076 382.182 348.808 387.546 348.447C390.231 348.268 392.895 348.06 395.535 347.781C396.86 347.65 398.169 347.472 399.482 347.308C400.784 347.107 402.093 346.928 403.383 346.664C403.893 346.57 404.399 346.47 404.905 346.369C407.077 344.009 408.866 341.242 410.384 338.297C412.15 334.882 413.608 331.248 415.13 327.599C416.658 323.954 418.239 320.268 420.315 316.801C421.349 315.07 422.505 313.398 423.807 311.842C425.12 310.293 426.567 308.866 428.111 307.574C431.202 304.983 434.646 302.913 438.172 301.107C441.702 299.293 445.321 297.718 448.906 296.102C452.488 294.483 456.059 292.833 459.448 290.845C462.832 288.864 466.042 286.544 468.783 283.703C466.15 286.641 463.003 289.095 459.671 291.21C456.334 293.332 452.801 295.123 449.271 296.873C445.737 298.623 442.189 300.321 438.778 302.235C435.367 304.141 432.091 306.282 429.23 308.866C427.802 310.155 426.482 311.555 425.299 313.055C424.127 314.563 423.093 316.183 422.163 317.866C420.307 321.24 418.894 324.874 417.51 328.545C416.13 332.22 414.787 335.97 413.062 339.626C412.165 341.529 411.142 343.413 409.96 345.208C412.898 344.448 415.81 343.554 418.686 342.534C423.688 340.758 428.583 338.613 433.352 336.201C442.896 331.367 451.942 325.473 460.656 319.121C469.379 312.761 477.811 305.955 486.332 299.26C494.853 292.565 503.486 285.971 512.577 280.069C503.721 286.317 495.374 293.22 487.124 300.232C478.874 307.243 470.706 314.377 462.17 321.12C453.638 327.86 444.707 334.19 435.115 339.526C430.32 342.188 425.362 344.597 420.233 346.645C415.107 348.693 409.807 350.376 404.38 351.582C403.03 351.914 401.661 352.156 400.296 352.42C398.931 352.647 397.566 352.885 396.201 353.075C393.471 353.474 390.745 353.794 388.037 354.077C382.618 354.654 377.254 355.127 372.009 355.883C370.224 356.147 368.454 356.445 366.698 356.784C366.698 356.788 366.698 356.788 366.698 356.788C367.26 356.851 367.814 356.974 368.368 357.089C368.844 357.194 369.324 357.275 369.796 357.406L371.214 357.771L372.605 358.203C372.835 358.277 373.07 358.344 373.296 358.422L373.977 358.664C374.431 358.828 374.888 358.985 375.335 359.16C377.128 359.856 378.879 360.619 380.602 361.42C382.32 362.22 384.02 363.051 385.708 363.862C387.401 364.674 389.089 365.475 390.804 366.201C391.232 366.379 391.66 366.573 392.091 366.741L393.385 367.247C393.817 367.422 394.256 367.556 394.695 367.712C395.134 367.865 395.569 368.025 396.011 368.148L397.339 368.543C397.786 368.658 398.236 368.759 398.682 368.87C398.905 368.922 399.128 368.982 399.355 369.03L400.036 369.15C400.49 369.228 400.944 369.321 401.397 369.384C403.224 369.641 405.076 369.712 406.932 369.663C408.788 369.619 410.644 369.399 412.481 369.09C414.323 368.781 416.153 368.371 417.96 367.876C421.583 366.901 425.131 365.635 428.661 364.328C425.195 365.795 421.706 367.221 418.105 368.368C416.309 368.949 414.479 369.448 412.626 369.846C410.774 370.244 408.892 370.553 406.988 370.687C405.087 370.825 403.164 370.84 401.249 370.661C400.772 370.617 400.296 370.542 399.82 370.483L399.106 370.39C398.868 370.349 398.634 370.3 398.399 370.255C397.927 370.162 397.455 370.077 396.986 369.98L395.591 369.634C395.122 369.526 394.669 369.384 394.207 369.246C393.75 369.105 393.285 368.986 392.835 368.826L391.477 368.368C391.024 368.219 390.585 368.04 390.135 367.876C388.349 367.213 386.601 366.48 384.864 365.743C383.127 365.002 381.405 364.257 379.675 363.546C377.95 362.838 376.216 362.172 374.472 361.587C374.037 361.438 373.594 361.315 373.159 361.178L372.5 360.977C372.281 360.91 372.058 360.861 371.838 360.802L370.514 360.455L369.183 360.176C368.74 360.072 368.29 360.016 367.844 359.941C367.397 359.871 366.951 359.793 366.497 359.752C366.047 359.703 365.597 359.647 365.147 359.603L363.793 359.513C360.721 359.357 357.634 359.577 354.621 360.146C352.902 360.783 351.203 361.476 349.525 362.22C347.16 363.285 344.839 364.469 342.562 365.728C333.461 370.821 325.181 377.416 317.444 384.647C314.599 387.305 311.828 390.053 309.098 392.864C310.169 392.395 311.248 391.956 312.334 391.55C315.782 390.243 319.293 389.26 322.819 388.486C326.349 387.722 329.897 387.19 333.446 386.858C335.22 386.695 336.998 386.576 338.772 386.508C339.661 386.475 340.546 386.453 341.432 386.441C342.317 386.438 343.209 386.427 344.072 386.449L346.683 386.497C347.554 386.52 348.413 386.568 349.28 386.602C351.013 386.661 352.72 386.795 354.439 386.896C357.849 387.149 361.245 387.439 364.593 387.767C371.307 388.415 377.894 389.093 384.425 389.424C390.946 389.726 397.403 389.681 403.733 388.851C410.086 388.016 416.461 386.482 422.885 384.755C426.891 383.682 430.923 382.539 435.01 381.459C436.859 380.771 438.678 380.037 440.445 379.218C440.869 379.017 441.304 378.834 441.717 378.618L442.966 377.982C443.39 377.777 443.781 377.531 444.19 377.304L444.796 376.958L445.101 376.786L445.395 376.6L446.567 375.848L446.861 375.662L447.143 375.457L447.705 375.048L448.267 374.642L448.549 374.437L448.817 374.217L449.885 373.335C452.693 370.933 455.051 367.932 457.391 364.864C458.562 363.326 459.73 361.766 460.965 360.243L461.43 359.673L461.91 359.111L462.869 357.99C463.186 357.614 463.532 357.264 463.859 356.899C464.194 356.538 464.521 356.173 464.859 355.82C467.582 352.99 470.528 350.394 473.66 348.06L474.244 347.617L474.843 347.196L476.04 346.354C476.434 346.068 476.855 345.818 477.26 345.546L478.488 344.753L479.741 344.001C480.161 343.752 480.571 343.495 481.002 343.264C481.857 342.799 482.698 342.307 483.572 341.883C487.035 340.11 490.632 338.625 494.325 337.452C490.699 338.814 487.195 340.475 483.859 342.408C483.014 342.873 482.207 343.405 481.389 343.908C480.976 344.154 480.582 344.433 480.18 344.701L478.982 345.506L477.814 346.351C477.428 346.637 477.03 346.906 476.654 347.207L475.516 348.093L474.95 348.536L474.4 348.998C471.443 351.452 468.694 354.137 466.187 357.026C465.875 357.387 465.574 357.759 465.269 358.128C464.967 358.5 464.651 358.858 464.361 359.238L463.487 360.373L463.052 360.939L462.628 361.52C461.501 363.065 460.429 364.667 459.332 366.268C458.235 367.872 457.115 369.481 455.903 371.052C455.293 371.834 454.668 372.612 453.998 373.361C453.671 373.741 453.322 374.106 452.979 374.478L452.447 375.018L452.18 375.286L451.901 375.543L450.781 376.571L450.502 376.827L450.208 377.066L449.617 377.542L449.025 378.019L448.728 378.257L448.598 378.35C453.336 377.498 458.164 376.928 463.059 376.894C463.933 376.872 464.811 376.906 465.689 376.921C466.128 376.921 466.567 376.954 467.006 376.976L468.322 377.051L469.635 377.166L470.29 377.226L470.941 377.304L472.243 377.46L473.537 377.65C473.968 377.71 474.396 377.784 474.824 377.859C475.252 377.933 475.679 378.004 476.107 378.082C476.955 378.25 477.807 378.406 478.648 378.6C480.336 378.957 481.999 379.378 483.654 379.81C490.264 381.571 496.616 383.787 502.984 385.682C504.16 386.032 505.335 386.371 506.514 386.695C507.384 386.784 508.266 386.788 509.155 386.702C510.613 386.553 512.078 386.192 513.507 385.652C516.374 384.58 519.082 382.9 521.656 381.024C522.947 380.078 524.2 379.084 525.457 378.049C526.715 377.021 527.968 375.982 529.222 374.94C531.725 372.851 534.224 370.747 536.768 368.688C541.853 364.573 547.146 360.627 552.907 357.473C553.622 357.067 554.358 356.706 555.083 356.322C555.823 355.965 556.552 355.592 557.304 355.261C558.792 354.572 560.317 353.965 561.857 353.41L563.017 353.008L564.189 352.643C564.579 352.517 564.973 352.413 565.368 352.305C565.762 352.2 566.152 352.081 566.554 351.992C568.142 351.597 569.749 351.307 571.364 351.08C569.76 351.377 568.169 351.735 566.61 352.197C566.219 352.305 565.833 352.439 565.446 352.558C565.059 352.681 564.672 352.804 564.289 352.945L563.143 353.358L562.013 353.809C560.51 354.423 559.03 355.09 557.586 355.834C556.857 356.192 556.155 356.594 555.44 356.978C554.741 357.387 554.031 357.778 553.343 358.206C547.789 361.569 542.746 365.683 537.877 369.987C535.441 372.14 533.042 374.344 530.628 376.544C529.422 377.643 528.21 378.741 526.986 379.832C525.77 380.923 524.513 382.014 523.218 383.053C521.916 384.092 520.57 385.09 519.142 386.002C517.717 386.918 516.215 387.745 514.619 388.422C514.53 388.46 514.437 388.497 514.344 388.534C515.359 388.728 516.378 388.899 517.401 389.059C518.208 389.16 519.019 389.29 519.83 389.364L521.046 389.487L522.262 389.577C522.668 389.614 523.073 389.625 523.482 389.64C523.888 389.655 524.297 389.677 524.702 389.685C525.513 389.685 526.328 389.711 527.139 389.666L528.359 389.621C528.764 389.614 529.17 389.562 529.579 389.536L530.799 389.439C531.204 389.402 531.61 389.342 532.015 389.297C535.266 388.906 538.498 388.244 541.701 387.406C548.109 385.73 554.384 383.384 560.689 381.08C566.989 378.779 573.353 376.492 579.944 375.018C583.236 374.284 586.576 373.759 589.939 373.566C593.301 373.372 596.678 373.514 599.989 374.061C596.66 373.651 593.294 373.651 589.969 373.983L589.98 373.931Z" fill="#C4CAC5"/>
</svg>
